<svg width="105" height="133" viewBox="0 0 105 133" fill="none" xmlns="http://www.w3.org/2000/svg">
<path d="M23.0241 85.0541C22.5442 86.3588 22.1458 87.6921 21.8312 89.0462C27.5754 93.0335 38.7394 98.387 51.9613 103.237C65.1832 108.087 77.1634 111.222 84.1255 111.895C84.7629 110.659 85.3228 109.385 85.8019 108.08C85.8249 108.018 85.8471 107.957 85.869 107.894C86.0807 107.311 86.2741 106.726 86.4493 106.139C86.8581 104.781 87.1799 103.398 87.4128 101.999C87.4223 101.943 87.4318 101.887 87.4402 101.83C88.3795 95.9797 87.7373 89.9847 85.58 84.4652C82.2216 75.8442 75.3155 68.6503 65.9378 65.211C56.6372 61.8007 46.7967 62.775 38.6902 67.0867C35.3345 68.8696 32.3077 71.2111 29.7401 74.0105C28.3415 75.5352 27.0893 77.1876 25.9998 78.946C25.9097 79.0887 25.8224 79.2323 25.7358 79.3774C25.0069 80.5944 24.3565 81.8567 23.7887 83.1566C23.5746 83.6443 23.3717 84.1395 23.1801 84.6421C23.1269 84.7777 23.0745 84.9157 23.0241 85.0541Z" fill="#FFB200"/>
<path d="M21.417 102.01C21.9562 105.245 22.967 108.384 24.4173 111.326C28.0782 118.754 34.4932 124.842 42.8883 127.922C51.3013 131.008 60.1566 130.504 67.7717 127.189C70.7645 125.884 73.5515 124.152 76.0449 122.046C67.7149 120.587 58.0189 117.961 47.9116 114.255C37.8043 110.548 28.7109 106.282 21.417 102.01Z" fill="#FFB200"/>
<path d="M47.9116 114.255C37.8055 110.548 28.7129 106.282 21.417 102.01C21.6403 103.356 21.9465 104.687 22.334 105.996C27.9634 109.485 36.8544 113.653 47.1288 117.421C56.9701 121.03 66.081 123.541 72.5893 124.605C73.7949 123.827 74.9491 122.972 76.0449 122.046C67.7149 120.587 58.0189 117.962 47.9116 114.255Z" fill="#D66B09"/>
<path d="M23.1813 84.6411C23.1281 84.7779 23.0765 84.9155 23.0253 85.0543C22.5454 86.3591 22.147 87.6923 21.8324 89.0464C27.5766 93.0337 38.7406 98.3872 51.9625 103.237C65.1844 108.087 77.1646 111.222 84.1266 111.895C84.7641 110.66 85.324 109.386 85.803 108.081C85.8261 108.018 85.8483 107.957 85.8701 107.895C79.2971 107.65 67.1164 104.66 53.6361 99.7164C39.627 94.5771 28.0513 88.7351 23.1813 84.6411Z" fill="#D66B09"/>
<path d="M87.9902 96.7989L87.7124 94.5647C83.1869 95.1314 71.0205 92.225 58.1313 87.4977C42.7546 81.8576 32.6692 76.1096 30.6542 73.3472L28.8321 74.6732C31.4985 78.3287 42.9607 84.3321 57.354 89.6114C70.7518 94.5266 83.0662 97.4155 87.9902 96.7989Z" fill="#D66B09"/>
<path d="M85.4967 85.5907L85.665 83.3451C80.4977 82.9596 71.4138 80.5648 61.9528 77.0954C52.0416 73.4602 43.3916 69.2833 39.3787 66.1978L38.0035 67.9822C42.1852 71.1987 51.0639 75.5009 61.1755 79.2094C70.8171 82.7431 80.1364 85.1886 85.4967 85.5907Z" fill="#D66B09"/>
<path d="M87.5293 102.953L87.3538 100.707C82.1396 101.113 69.5668 98.0589 56.067 93.1075C41.9066 87.9127 29.8959 81.7899 26.8595 78.2158L25.1406 79.6728C28.4557 83.574 40.5716 89.8225 55.2897 95.2212C69.2825 100.353 81.9356 103.388 87.5293 102.953Z" fill="#D66B09"/>
<path d="M67.7735 127.753V127.192L67.999 126.674L67.8914 126.627H67.7723C63.2382 126.632 54.4341 124.481 45.3471 121.147C36.2084 117.795 28.3281 113.867 24.7808 110.896L24.0567 111.759C27.697 114.808 35.7058 118.81 44.9584 122.204C54.3023 125.631 63.0444 127.757 67.7735 127.753Z" fill="#D66B09"/>
<path d="M54.3856 130.754C62.3806 130.754 70.2768 127.964 76.5588 122.651L77.8525 121.557L76.1829 121.264C67.6008 119.761 57.9198 117.08 48.1865 113.51C38.4532 109.94 29.3356 105.727 21.8197 101.325L20.3573 100.469L20.6352 102.139C22.6498 114.268 31.0723 124.432 42.6158 128.666C46.3857 130.048 50.37 130.755 54.3856 130.754ZM74.1945 122.514C65.3646 129.216 53.6314 131.018 43.1637 127.178C32.6959 123.338 24.9169 114.381 22.5275 103.564C29.8203 107.696 38.4615 111.633 47.6399 114.999C56.8183 118.366 65.9565 120.951 74.1937 122.514H74.1945Z" fill="#001869"/>
<path d="M3.58334 82.9648C1.89503 87.558 9.09607 94.7939 21.4184 102.01C28.7144 106.282 37.807 110.549 47.9131 114.255C58.0191 117.962 67.7163 120.588 76.0464 122.046C90.1154 124.51 100.291 123.648 101.98 119.055C103.513 114.883 97.717 108.535 87.4144 101.999C87.1816 103.398 86.8598 104.781 86.451 106.139C89.3139 108.149 90.7724 109.803 90.385 110.858C89.99 111.932 87.7304 112.243 84.1271 111.895C77.165 111.221 65.1845 108.088 51.963 103.237C38.7414 98.3855 27.5762 93.0336 21.8329 89.0463C18.8615 86.9842 17.3404 85.285 17.7354 84.2107C18.1224 83.1575 20.3061 82.8379 23.7903 83.1555C24.3581 81.8556 25.0085 80.5934 25.7375 79.3764C13.6469 77.6986 5.11565 78.793 3.58334 82.9648Z" fill="#FFC536"/>
<path d="M87.3742 103.897L87.1182 104.275C89.6838 105.964 91.6833 107.497 93.2021 108.865C92.0351 107.397 90.0962 105.748 87.3742 103.897Z" fill="#FF9100"/>
<path d="M86.8603 104.65L87.1172 104.275C87.0739 104.244 87.0239 104.213 86.9743 104.183L86.8603 104.65Z" fill="#FF9100"/>
<path d="M13.375 83.1567C13.7997 82.0067 14.9466 81.2453 16.852 80.8662C18.6952 80.5018 21.2481 80.497 24.5366 80.8488L24.4878 81.3008L24.3429 82.6634C18.068 81.9924 15.4507 82.8026 15.0867 83.7864C14.4829 85.4309 18.8611 89.8398 29.9076 95.6251C36.0825 98.8582 43.4908 102.089 51.3274 104.964C55.9382 106.655 60.5172 108.158 64.8899 109.413C67.9493 110.298 70.9079 111.062 73.707 111.69C85.8761 114.421 92.0697 113.891 92.6754 112.243C93.0303 111.281 91.6143 109.031 86.6133 105.581C86.5271 105.52 86.4374 105.462 86.3477 105.399L86.861 104.646L87.1174 104.271L87.3735 103.894C90.0955 105.744 92.0343 107.393 93.2014 108.861C94.4249 110.387 94.8103 111.714 94.3872 112.869C93.9727 113.992 92.8493 114.691 91.2487 115.072C87.0738 116.067 79.6663 114.893 73.3088 113.465C70.4304 112.82 67.3876 112.031 64.24 111.12C59.869 109.859 55.3002 108.357 50.7001 106.67C42.7889 103.769 35.3068 100.505 29.0589 97.2367C21.0802 93.0598 11.88 87.2226 13.375 83.1567Z" fill="#FFEC90"/>
<path d="M7.81266 82.7207C9.37871 78.4613 18.151 78.6481 25.2305 79.5578L24.9991 81.3652C24.8272 81.3442 24.6557 81.3228 24.4874 81.301C21.426 80.9278 18.9012 80.8053 16.8517 80.8648C12.1916 81.0064 9.98607 82.0965 9.52399 83.3484C8.69512 85.6087 12.4497 90.8801 25.7736 98.2956C32.6598 102.13 40.9672 105.87 49.8022 109.108C53.8434 110.589 57.8683 111.92 61.782 113.074C66.4349 114.448 70.9326 115.568 75.1286 116.399C90.0892 119.359 96.3665 117.768 97.1981 115.508C97.6594 114.253 96.6781 111.99 93.2011 108.865C91.6822 107.497 89.6827 105.964 87.1171 104.275C87.0734 104.243 87.0238 104.213 86.9742 104.182C86.8809 104.119 86.7844 104.058 86.6872 103.993L87.1818 103.232L87.6808 102.463C93.6679 106.35 100.478 111.874 98.9091 116.134C98.3033 117.783 96.6428 118.776 94.3868 119.313C89.0769 120.576 80.4897 119.317 74.7765 118.186C69.7611 117.195 64.3242 115.793 58.7186 114.052C55.5758 113.078 52.3817 111.999 49.1774 110.822C40.2527 107.549 31.854 103.769 24.8879 99.889C17.6357 95.8517 5.77699 88.2565 7.81266 82.7207Z" fill="#FFEC90"/>
<path d="M89.5699 124.195C96.9222 124.195 101.543 122.542 102.724 119.328C104.369 114.854 99.0825 108.463 87.8379 101.33L86.8257 100.687L86.6272 101.869C86.3997 103.235 86.0854 104.585 85.6863 105.911L85.5216 106.459L85.9904 106.788C89.951 109.569 89.639 110.575 89.6354 110.584C89.6318 110.594 89.2063 111.589 84.1997 111.106C77.0939 110.418 64.843 107.118 52.2324 102.493C39.6219 97.8677 28.1446 92.4654 22.281 88.3952C18.1525 85.5274 18.4701 84.4944 18.4756 84.4844C18.4812 84.4745 18.8932 83.5061 23.7133 83.9455L24.2837 83.9979L24.5132 83.4732C25.0678 82.2049 25.7027 80.9731 26.4139 79.7853L27.0295 78.7574L25.8418 78.5925C12.6489 76.7624 4.47844 78.2189 2.83379 82.6928C1.03551 87.5863 7.66135 94.8769 21.0151 102.696C28.6111 107.144 37.8172 111.399 47.6375 115.001C57.4578 118.603 67.2336 121.31 75.907 122.829C81.1398 123.744 85.728 124.195 89.5699 124.195ZM87.9792 103.306C97.5713 109.558 102.511 115.306 101.234 118.781C99.7701 122.763 90.1709 123.715 76.1825 121.265C67.6004 119.762 57.9194 117.081 48.1861 113.511C38.4528 109.941 29.3352 105.727 21.8193 101.326C9.56641 94.1508 2.86396 87.2199 4.32759 83.2381C5.60504 79.7631 13.0955 78.5734 24.4576 80.0074C24.0408 80.7608 23.6513 81.5357 23.2933 82.3189C19.5054 82.0353 17.4975 82.554 16.9886 83.9376C16.4467 85.4112 17.8417 87.2413 21.3779 89.6979C27.4357 93.9014 38.7652 99.2421 51.6882 103.982C64.6112 108.721 76.7077 111.975 84.0492 112.685C88.3365 113.098 90.5869 112.606 91.1284 111.131C91.6369 109.747 90.4409 108.053 87.3691 105.821C87.6041 104.992 87.8082 104.151 87.9792 103.306Z" fill="#001869"/>
<g opacity="0.41">
<path d="M21.8318 89.1607C22.5003 89.6247 23.2402 90.1061 24.0516 90.605C24.2985 89.706 24.5859 88.8086 24.9123 87.9191C24.9639 87.7807 25.0163 87.6439 25.0683 87.5071C25.2593 87.0048 25.4621 86.5094 25.6764 86.0208C26.2444 84.7211 26.894 83.4586 27.6216 82.2409C27.7081 82.0965 27.797 81.9534 27.886 81.8106C28.9752 80.0515 30.2279 78.3988 31.6274 76.8743C34.1948 74.0754 37.2215 71.7347 40.5771 69.9529C48.6848 65.6408 58.5258 64.6641 67.826 68.0764C74.0346 70.3538 79.1607 74.2777 82.8906 79.1732C78.9642 72.7802 72.9901 67.9004 65.938 65.326C56.6382 61.9156 46.7968 62.8907 38.6915 67.2024C35.3352 68.985 32.3078 71.3266 29.7398 74.1262C28.3414 75.6503 27.0893 77.3022 26 79.0601C25.909 79.2033 25.8225 79.348 25.7364 79.4924C25.0072 80.7088 24.3568 81.9707 23.7892 83.2703C23.5749 83.7592 23.3721 84.2546 23.1811 84.7566C23.1267 84.8938 23.0747 85.0302 23.0251 85.1706C22.5451 86.4747 22.1466 87.8073 21.8318 89.1607Z" fill="white"/>
</g>
<path d="M84.5864 112.736L84.8329 112.26C85.485 110.995 86.0582 109.691 86.549 108.355C86.7908 107.698 87.0135 107.029 87.2116 106.368C87.6298 104.978 87.9591 103.562 88.1977 102.13C90.882 85.9642 81.6361 70.1251 66.213 64.4683C50.7899 58.8115 33.4808 64.9105 25.0555 78.9706C24.3095 80.2168 23.6437 81.5092 23.0619 82.8398C22.784 83.4719 22.5212 84.1258 22.2799 84.7829C21.7887 86.1186 21.3807 87.4833 21.0584 88.8694L20.9369 89.3932L21.3787 89.6997C27.4365 93.9032 38.7661 99.244 51.6891 103.984C64.612 108.723 76.7085 111.974 84.0501 112.685L84.5864 112.736ZM54.4242 63.9552C58.2601 63.9556 62.0658 64.6327 65.666 65.9554C80.3738 71.3485 89.1909 86.454 86.6312 101.869C86.4037 103.235 86.0895 104.584 85.6904 105.91C85.5014 106.542 85.289 107.179 85.0584 107.807C84.6524 108.912 84.1874 109.994 83.6654 111.05C76.4882 110.253 64.5338 107.003 52.2365 102.493C39.9391 97.9821 28.7191 92.7326 22.7316 88.7004C23.0174 87.5585 23.3642 86.4326 23.7705 85.3278C24.0003 84.7012 24.2516 84.0778 24.5164 83.4743C25.0714 82.205 25.7065 80.9723 26.4179 79.7836C32.4372 69.7389 43.2129 63.9552 54.4242 63.9552Z" fill="#001869"/>
<g opacity="0.3">
<path d="M62.9645 106.976C71.6553 109.686 79.166 111.417 84.1274 111.896C87.7303 112.244 89.9898 111.933 90.3848 110.859C90.7723 109.804 89.313 108.15 86.4508 106.14C86.689 105.351 86.8911 104.559 87.0677 103.767C96.3628 109.931 101.485 115.833 100.034 119.783C99.6132 120.927 98.6656 121.839 97.2635 122.527C97.3961 122.489 97.5251 122.447 97.6529 122.408C93.0981 123.85 85.4433 123.691 76.0466 122.045C67.7166 120.586 58.0206 117.96 47.9133 114.254C47.1297 113.966 46.3532 113.676 45.5839 113.381C73.9522 119.475 62.9645 106.976 62.9645 106.976Z" fill="#371A45"/>
</g>
<g opacity="0.3">
<path d="M62.1696 102.371C52.1425 102.238 31.2011 93.4644 22.5396 89.5258C22.2963 89.364 22.0581 89.2038 21.8314 89.0468C22.0446 88.1323 21.3511 88.862 21.6448 87.9551C27.1064 90.612 52.6939 101.977 64.1163 102.128C64.6157 102.135 65.1147 102.119 65.6113 102.085C64.4761 102.291 63.3234 102.387 62.1696 102.371Z" fill="#371A45"/>
</g>
<g opacity="0.3">
<path d="M21.6459 87.9546C27.1074 90.6115 52.695 101.976 64.1174 102.128C70.1116 102.207 76.092 99.3361 77.3492 93.483C77.3722 93.3755 77.3889 93.2847 77.4024 93.2097C77.4119 93.1538 77.4211 93.0975 77.4302 93.0396C77.7577 91.008 77.8944 88.9502 77.8383 86.8931C77.6761 81.0737 75.9991 75.3969 72.9726 70.4219C77.712 74.0892 81.3757 78.9635 83.579 84.5331C85.7823 90.1026 86.444 96.162 85.4947 102.075C85.4875 102.131 85.478 102.187 85.4689 102.243C85.2352 103.642 84.913 105.025 84.5042 106.384C84.3298 106.971 84.1369 107.556 83.9254 108.139C83.9024 108.202 83.8814 108.262 83.8583 108.325C83.4337 109.472 82.948 110.597 82.4034 111.693C82.6874 111.731 82.9653 111.767 83.2371 111.799C76.171 110.959 64.639 107.887 51.9637 103.238C38.7418 98.3887 27.5766 93.0341 21.8336 89.0475C22.0429 88.1319 21.3513 88.8615 21.6459 87.9546Z" fill="#371A45"/>
</g>
<g opacity="0.3">
<path d="M72.8344 122.418C71.3015 123.408 69.6903 124.273 68.0168 125.002C60.4025 128.317 51.5465 128.82 43.1335 125.735C34.7383 122.656 28.3233 116.567 24.6624 109.139C23.8165 107.425 23.1196 105.641 22.5791 103.808C22.4044 103.218 22.2484 102.623 22.1067 102.023C29.3268 106.21 38.2531 110.38 48.1567 114.012C57.4597 117.425 66.4114 119.917 74.2734 121.431C73.801 121.771 73.3231 122.102 72.8344 122.418Z" fill="#371A45"/>
</g>
<path d="M64.3386 64.3472H44.9303C41.5203 64.3472 38.7559 61.5857 38.7559 58.1792V40.792C38.7559 37.3855 41.5203 34.624 44.9303 34.624H64.3386C67.7487 34.624 70.5131 37.3855 70.5131 40.792V58.1792C70.5131 61.5857 67.7487 64.3472 64.3386 64.3472Z" fill="white"/>
<path d="M38.7541 40.69V58.2818C38.7541 61.6172 41.5785 64.3491 45.0325 64.3491H64.2332C67.6869 64.3491 70.5117 61.6188 70.5117 58.2818V40.69C70.5121 39.7566 70.2886 38.8366 69.8599 38.0073C69.5503 37.4073 69.1437 36.8625 68.6563 36.3949C67.5457 35.3314 66.0871 34.7057 64.5504 34.6334C64.4448 34.6283 64.3388 34.6255 64.2328 34.6255H45.0302C42.5031 34.6255 40.315 36.088 39.3213 38.179C39.2097 38.4142 39.1136 38.6565 39.0335 38.9043C38.848 39.4814 38.7537 40.0838 38.7541 40.69Z" fill="white"/>
<path d="M44.9305 34.6236C41.5344 34.6236 38.756 37.3994 38.756 40.7916V58.1788C38.756 61.5713 41.5348 64.3468 44.9305 64.3468H64.3388C67.7349 64.3468 70.5137 61.5709 70.5137 58.1788V40.7916C70.5137 37.3991 67.7349 34.6236 64.3388 34.6236H44.9305ZM44.9305 33.3546H64.3388C68.445 33.3546 71.7852 36.6916 71.7852 40.7931V58.1804C71.7852 62.2819 68.445 65.6185 64.3388 65.6185H44.9305C40.8246 65.6185 37.4841 62.2819 37.4841 58.1804V40.7916C37.4841 36.69 40.8246 33.353 44.9305 33.353V33.3546Z" fill="#001869"/>
<g opacity="0.3">
<path d="M39.4407 41.5831L39.5244 41.6255C39.5244 41.5859 39.5244 41.5462 39.5244 41.5085C39.5212 41.4553 39.5146 41.4023 39.5046 41.3499C39.5022 41.3356 39.4993 41.3226 39.4957 41.3103C39.495 41.3046 39.4939 41.2991 39.4925 41.2936C39.4888 41.2774 39.4844 41.2619 39.4795 41.2468C39.4747 41.2317 39.4722 41.2202 39.4682 41.2072C39.4665 41.2006 39.4643 41.1941 39.4617 41.1877C39.4569 41.1731 39.4516 41.1584 39.4463 41.1445C39.4411 41.1306 39.433 41.1104 39.4261 41.0938C39.4302 41.112 39.4338 41.1302 39.437 41.1485C39.4443 41.1881 39.4496 41.2278 39.4532 41.2674C39.4619 41.3728 39.4577 41.4787 39.4407 41.5831Z" fill="#6B184E"/>
</g>
<path d="M63.347 35.7193L63.8662 37.0814L64.3069 38.237L64.6899 39.2426L66.9475 45.1632C67.3131 45.2647 67.6871 45.3567 68.0713 45.4332C72.8945 46.4246 79.2659 45.3773 87.9596 35.6384C89.3196 34.1156 92.6013 33.1924 91.1707 29.7298C89.7074 26.1878 87.6483 26.6299 87.6483 26.6299C87.6483 26.6299 88.1878 24.8744 87.0247 23.9857C85.3832 22.7302 83.4369 24.59 81.5465 25.9161C81.2777 26.1049 81.398 23.561 79.622 23.6375C77.0814 23.747 77.2175 29.5394 77.2175 29.5394C77.2175 29.5394 73.7909 33.2983 68.4707 34.9539C67.0474 35.4019 65.5703 35.6567 64.079 35.7114C63.838 35.7193 63.5923 35.7225 63.347 35.7193Z" fill="white"/>
<g opacity="0.35">
<path d="M66.9467 45.1624C71.8926 46.5349 78.5708 46.1538 87.958 35.638C89.3176 34.1152 92.5994 33.1932 91.1687 29.7294C90.2906 27.6015 89.1962 26.9138 88.4641 26.6997C88.7126 27.0764 88.8901 27.5689 89.1878 28.0932C90.8618 31.0384 86.2784 33.8967 85.0153 33.3741C84.2404 33.0533 83.9676 32.7428 83.5203 31.2628C83.0439 29.6897 82.3039 28.9414 82.217 29.0394C81.82 29.4835 81.8109 34.9646 80.8995 36.8911C78.5756 41.8083 72.3174 44.2233 67.7764 44.0128C67.6357 44.0062 67.4955 44.0347 67.3686 44.0959C67.2418 44.1571 67.1322 44.2489 67.0498 44.363C66.9674 44.4772 66.9148 44.6101 66.8968 44.7497C66.8788 44.8892 66.896 45.0311 66.9467 45.1624Z" fill="#371A45"/>
</g>
<path d="M70.9133 46.3608C75.2367 46.3608 81.0281 44.3383 88.4249 36.0544C88.7242 35.7189 89.1577 35.3961 89.6158 35.0547C91.0449 33.9903 93.0031 32.5326 91.7471 29.4914C90.6868 26.9249 89.2772 26.2155 88.382 26.0414C88.4431 25.3054 88.3423 24.2074 87.4031 23.4892C85.6262 22.1314 83.6997 23.5562 81.9999 24.8129L81.8411 24.9319C81.6029 24.1435 81.0512 22.9491 79.5931 23.0141C76.7849 23.1331 76.5888 27.9786 76.5872 29.2912C75.6063 30.277 70.3643 35.1899 63.353 35.0951H63.3447C63.1788 35.0941 63.0194 35.159 62.9015 35.2754C62.7835 35.3918 62.7167 35.5503 62.7157 35.7159C62.7147 35.8816 62.7796 36.0408 62.8961 36.1586C63.0127 36.2765 63.1713 36.3432 63.3371 36.3442C71.6656 36.4489 77.4359 30.2266 77.6777 29.9598C77.7861 29.8407 77.8444 29.6844 77.8404 29.5235C77.8008 27.833 78.1942 24.3216 79.6471 24.2589C80.2687 24.2331 80.5121 24.7288 80.7419 25.6544C80.8376 26.039 80.9201 26.3713 81.2854 26.5078C81.3874 26.5452 81.497 26.5574 81.6047 26.5432C81.7124 26.5289 81.8151 26.4887 81.9038 26.4261C82.1817 26.2302 82.4636 26.0228 82.7442 25.815C84.5306 24.4949 85.6818 23.7458 86.6433 24.4798C87.4416 25.0897 87.0526 26.4344 87.0486 26.4479C87.0171 26.552 87.0133 26.6626 87.0376 26.7687C87.0619 26.8747 87.1134 26.9726 87.1872 27.0527C87.2609 27.1328 87.3543 27.1923 87.4581 27.2253C87.5619 27.2583 87.6725 27.2637 87.779 27.241C87.8302 27.2335 89.3701 27.0126 90.5912 29.9681C91.4768 32.1114 90.268 33.0112 88.8687 34.0526C88.38 34.4162 87.8763 34.7921 87.4908 35.2224C77.8746 45.9935 71.2547 45.71 67.1135 44.56C67.0344 44.5381 66.9517 44.5319 66.8702 44.5419C66.7886 44.5518 66.7099 44.5778 66.6384 44.6181C66.5669 44.6585 66.5041 44.7126 66.4535 44.7772C66.4029 44.8418 66.3656 44.9158 66.3436 44.9948C66.3216 45.0739 66.3154 45.1565 66.3254 45.2379C66.3354 45.3193 66.3613 45.398 66.4018 45.4694C66.4422 45.5409 66.4963 45.6036 66.561 45.6542C66.6257 45.7047 66.6997 45.742 66.7789 45.7639C67.9678 46.0935 69.3441 46.3608 70.9133 46.3608Z" fill="#001869"/>
<path d="M80.7833 25.7801L80.9238 27.7628C80.9319 27.8799 80.9711 27.9927 81.0373 28.0896L81.0544 28.1146C81.1011 28.1663 81.1447 28.2207 81.185 28.2775C81.2311 28.341 81.2759 28.4064 81.318 28.4758C81.4031 28.6121 81.4795 28.7537 81.5467 28.8997C81.6803 29.1902 81.7686 29.4994 81.8083 29.8166C81.8345 29.9752 81.8257 30.1338 81.8277 30.2924C81.8039 30.4487 81.7995 30.612 81.7483 30.7683C81.6812 31.0855 81.5212 31.3837 81.3513 31.678L81.3351 31.7061C81.2947 31.7741 81.2817 31.8548 81.2988 31.932C81.3158 32.0092 81.3616 32.077 81.4269 32.1217C81.4921 32.1664 81.5719 32.1846 81.6501 32.1727C81.7283 32.1607 81.799 32.1196 81.848 32.0575C82.098 31.7458 82.3434 31.4103 82.4906 31.0165C82.5812 30.8262 82.6232 30.62 82.68 30.4146C82.711 30.206 82.7487 29.9946 82.7463 29.7825C82.7545 29.3587 82.6973 28.9362 82.5768 28.5297C82.5171 28.3278 82.4444 28.1299 82.3593 27.9373C82.3172 27.8405 82.2707 27.745 82.2207 27.6502C82.1671 27.5472 82.1078 27.4473 82.0433 27.3508L82.1739 27.7025L82.0294 25.6639C82.0164 25.4996 81.939 25.3471 81.8139 25.2396C81.6889 25.1321 81.5264 25.0783 81.3618 25.0899C81.1973 25.1016 81.044 25.1778 80.9354 25.3018C80.8268 25.4259 80.7717 25.5878 80.7821 25.7523L80.7833 25.7801Z" fill="#001869"/>
<path d="M76.5895 45.043C76.6885 45.043 76.7853 45.0135 76.8674 44.9581C76.9495 44.9028 77.0131 44.8241 77.0501 44.7323C77.087 44.6406 77.0957 44.5398 77.0749 44.4431C77.054 44.3464 77.0047 44.2581 76.9333 44.1896C73.5717 40.9672 73.0576 33.1877 73.0529 33.1095C73.0449 32.9781 72.9849 32.8552 72.8862 32.7679C72.7875 32.6805 72.6581 32.636 72.5265 32.644C72.3949 32.652 72.2718 32.7119 72.1844 32.8105C72.097 32.9091 72.0524 33.0383 72.0604 33.1698C72.0807 33.5049 72.6023 41.4137 76.2441 44.905C76.3368 44.9942 76.4607 45.0437 76.5895 45.043Z" fill="#001869"/>
<path d="M33.177 61.3297C33.4442 67.2332 35.2512 69.6288 37.4822 70.3846C37.9621 70.5481 38.467 70.6269 38.974 70.6174C40.5527 70.5627 41.6988 69.8972 41.6988 69.8972C41.6988 69.8972 42.2803 70.1411 42.8135 70.0896C46.9392 69.6895 45.998 67.2439 45.16 63.3256C44.9194 62.1982 44.6864 60.9486 44.5863 59.5916C44.11 53.1806 45.9043 47.1197 45.9043 47.1197L45.2132 41.3677L44.4438 34.957C44.4438 34.957 44.0405 35.3223 43.3855 36.0174C42.8119 36.6249 42.0457 37.4823 41.1907 38.5676C37.7013 42.9872 32.7141 51.1582 33.177 61.3297Z" fill="white"/>
<path d="M38.8632 71.2443C38.9076 71.2443 38.9513 71.2443 38.995 71.2419C39.9468 71.204 40.8815 70.9775 41.7448 70.5753C42.0183 70.6574 42.4462 70.7525 42.873 70.7109C44.4291 70.5606 45.4176 70.1268 45.9841 69.3468C46.8697 68.127 46.4791 66.377 45.9841 64.1615C45.6804 62.8017 45.3366 61.2603 45.2088 59.5448C44.7463 53.3304 46.4842 47.356 46.5017 47.2965C46.5487 47.1376 46.5306 46.9666 46.4514 46.8211C46.3722 46.6755 46.2384 46.5674 46.0793 46.5204C45.9203 46.4735 45.7491 46.4915 45.6034 46.5707C45.4577 46.6498 45.3495 46.7835 45.3024 46.9424C45.2278 47.1946 43.4815 53.1881 43.9615 59.6376C44.0961 61.4435 44.4506 63.0321 44.763 64.4335C45.1889 66.3417 45.5255 67.849 44.9706 68.6131C44.6347 69.0759 43.9091 69.3555 42.7515 69.4677C42.4478 69.4975 42.06 69.3714 41.9353 69.3206L41.6507 69.204L41.3824 69.3579C41.3736 69.3626 40.3399 69.9456 38.9509 69.9924C38.5192 70.0005 38.0893 69.9334 37.6806 69.7941C35.3234 68.9954 34.017 66.1383 33.7978 61.3023C33.4406 53.4637 36.4575 46.8543 39.0529 42.6897C41.879 38.1528 44.8316 35.4467 44.8614 35.4201C44.9842 35.3087 45.0576 35.1531 45.0655 34.9876C45.0735 34.8221 45.0152 34.6602 44.9037 34.5376C44.7921 34.415 44.6364 34.3416 44.4707 34.3337C44.305 34.3258 44.143 34.384 44.0202 34.4954C43.8956 34.6084 40.9294 37.322 38.0125 41.9958C35.3151 46.3182 32.177 53.1845 32.5482 61.359C32.7967 66.8366 34.3441 69.9828 37.2789 70.977C37.7895 71.1492 38.3243 71.2394 38.8632 71.2443Z" fill="#001869"/>
<path d="M44.7045 54.1171C44.8212 54.1168 44.934 54.0756 45.0232 54.0006C45.1125 53.9257 45.1725 53.8217 45.1927 53.707C45.2129 53.5922 45.192 53.4741 45.1338 53.3731C45.0755 53.2722 44.9836 53.195 44.874 53.155C44.5342 53.0321 36.5277 50.1734 33.6179 52.787C33.5201 52.875 33.4612 52.9981 33.4542 53.1294C33.4473 53.2607 33.4928 53.3894 33.5808 53.4871C33.6688 53.5849 33.7921 53.6437 33.9236 53.6507C34.055 53.6576 34.1838 53.6121 34.2817 53.5242C36.3308 51.6834 42.3799 53.3065 44.5354 54.0873C44.5896 54.107 44.6469 54.117 44.7045 54.1171Z" fill="#001869"/>
<path d="M40.1681 63.3256H69.2549C69.3315 60.9689 69.3125 58.6998 69.2235 56.5307C69.1406 54.5222 68.9953 52.5997 68.8047 50.774C68.6309 49.1045 68.4185 47.5163 68.1807 46.0153C68.1493 45.817 68.112 45.6235 68.0711 45.4344C67.482 42.7719 65.8981 40.9276 64.81 39.1439C64.6258 38.8409 64.4551 38.5411 64.3067 38.2381C64.1362 37.8973 63.9966 37.5419 63.8895 37.1762C63.88 37.1454 63.8722 37.1142 63.866 37.0826C63.7906 36.6936 63.9002 36.2141 64.0784 35.7129C64.4694 34.6117 65.1899 33.4014 64.9867 32.8034C64.652 31.818 64.3614 31.0431 64.1455 30.4966C63.9002 29.8721 63.7533 29.5449 63.7533 29.5449H45.6697C45.6697 29.5449 45.5196 29.8669 45.268 30.4867C45.0068 31.1288 44.638 32.0892 44.216 33.3494C43.9548 34.1271 43.6733 35.0189 43.3855 36.0186C43.1747 36.7495 42.9588 37.5382 42.7448 38.3813C42.6432 38.7826 42.5416 39.1966 42.4431 39.6213C41.9707 41.6112 41.519 43.8644 41.1407 46.3679C40.9263 47.7705 40.7373 49.248 40.5825 50.8001C40.3963 52.6338 40.259 54.5674 40.1824 56.5957C40.101 58.7359 40.0899 60.9848 40.1681 63.3256Z" fill="white"/>
<path d="M66.8476 40.9779C66.8222 41.4681 66.8504 41.9412 66.8742 42.4135C66.898 42.8857 66.9436 43.3513 66.9857 43.8172C67.0278 44.2832 67.0977 44.7416 67.1608 45.2024C67.233 45.6616 67.3279 46.1169 67.4093 46.5753L67.5335 47.2625C67.5709 47.4925 67.6018 47.7233 67.634 47.9541C67.6979 48.4153 67.757 48.8777 67.8086 49.342C67.8602 49.8064 67.9154 50.2684 67.9607 50.7331C68.0059 51.1979 68.0536 51.6614 68.0925 52.127C68.2628 53.9872 68.3124 55.8578 68.3807 57.7271C68.4228 58.6614 68.4632 59.5961 68.5327 60.5307C68.5855 61.4662 68.6395 62.4005 69.1583 63.33C69.1723 63.3551 69.1957 63.3736 69.2233 63.3815C69.2509 63.3893 69.2805 63.3859 69.3056 63.372C69.3247 63.3617 69.3402 63.3458 69.3501 63.3264C69.8308 62.3775 69.8427 61.4337 69.8384 60.4915C69.8491 59.5485 69.8241 58.6063 69.7792 57.6641C69.6776 55.78 69.4962 53.9 69.3382 52.0176C69.2987 51.5472 69.2543 51.0769 69.2048 50.6066C69.1593 50.1363 69.1079 49.6663 69.0508 49.1965C68.9978 48.7264 68.9387 48.2569 68.8733 47.7879L68.6959 46.3782C68.6431 45.9067 68.5768 45.4368 68.4867 44.9704C68.3966 44.5041 68.2751 44.0437 68.1425 43.5865C67.8674 42.6744 67.5204 41.7774 67.0334 40.9296C67.0228 40.9109 67.0064 40.8962 66.9868 40.8877C66.9671 40.8791 66.9452 40.8771 66.9243 40.882C66.9034 40.8869 66.8847 40.8985 66.871 40.9149C66.8572 40.9313 66.8491 40.9518 66.848 40.9732L66.8476 40.9779Z" fill="#001869"/>
<path d="M40.2644 63.3281C40.7805 62.4894 40.8305 61.6435 40.8742 60.7985C40.9357 59.9542 40.9683 59.1104 41.0004 58.2681C41.0516 56.5831 41.0937 54.9002 41.2719 53.2283C41.3553 52.392 41.4577 51.5576 41.5736 50.7249C41.6895 49.8921 41.8066 49.0594 41.9865 48.2353C42.0694 47.8225 42.1604 47.4113 42.2306 46.9961C42.2949 46.5797 42.3461 46.1606 42.3874 45.7386C42.4287 45.3167 42.4474 44.8904 42.4609 44.4609C42.4758 44.025 42.4625 43.5885 42.4212 43.1543V43.1519C42.4198 43.1388 42.4158 43.1262 42.4095 43.1146C42.4032 43.1031 42.3947 43.0929 42.3844 43.0846C42.3742 43.0764 42.3624 43.0702 42.3498 43.0665C42.3371 43.0628 42.3239 43.0617 42.3108 43.0631C42.295 43.0649 42.2798 43.0704 42.2665 43.0791C42.2532 43.0879 42.2421 43.0996 42.2342 43.1135C41.7975 43.8863 41.4839 44.6909 41.2299 45.5098C40.9759 46.3268 40.7996 47.1659 40.7035 48.016C40.5935 48.8635 40.4482 49.7061 40.3343 50.554C40.2204 51.4018 40.112 52.2504 40.0274 53.1018C39.8599 54.8042 39.686 56.5078 39.6011 58.2122C39.5665 59.0648 39.5491 59.9174 39.5681 60.7672C39.5725 61.6178 39.5884 62.4676 40.0727 63.3249C40.0872 63.3505 40.1113 63.3693 40.1396 63.3772C40.168 63.3851 40.1983 63.3814 40.2239 63.367C40.2405 63.3576 40.2544 63.3442 40.2644 63.3281Z" fill="#001869"/>
<g opacity="0.35">
<path d="M40.1824 57.963C41.9688 58.1375 44.1942 58.2009 45.923 57.7477V58.7042C45.9247 59.3437 46.1799 59.9566 46.6327 60.4087C47.0855 60.8608 47.6992 61.1154 48.3394 61.1168H61.5236C62.1634 61.1148 62.7764 60.8599 63.2288 60.4079C63.6811 59.9558 63.9359 59.3433 63.9376 58.7042V57.938C65.6608 58.1997 67.6667 58.0867 69.2236 57.911C69.1419 56.3106 68.9958 54.7783 68.8048 53.3241C67.3757 53.384 65.531 53.4098 63.9376 53.2722V51.5535C63.9362 50.9144 63.6814 50.3018 63.229 49.8499C62.7766 49.3979 62.1634 49.1435 61.5236 49.1421H48.3394C47.9669 49.1429 47.5996 49.2297 47.2661 49.3957C46.9327 49.5616 46.6422 49.8023 46.4173 50.099C46.0966 50.5166 45.923 51.0284 45.9234 51.5547V53.1659C44.3189 53.3991 42.2431 53.3991 40.5826 53.3444C40.3968 54.806 40.2591 56.3474 40.1824 57.963Z" fill="#371A45"/>
</g>
<path d="M61.3856 55.4381C63.1986 56.171 66.004 56.0179 67.9166 55.7867C68.189 55.7536 68.452 55.6663 68.6901 55.53C68.9282 55.3937 69.1365 55.2111 69.3028 54.993C69.469 54.7749 69.5899 54.5257 69.6581 54.2602C69.7264 53.9947 69.7407 53.7182 69.7002 53.447C69.6262 52.9439 69.3677 52.4861 68.9749 52.1626C68.5821 51.8391 68.0829 51.6729 67.5744 51.6963C65.7856 51.7799 63.1021 51.8192 61.4027 51.4429" fill="white"/>
<g opacity="0.35">
<path d="M61.3862 55.4377C63.1995 56.1717 66.0053 56.0171 67.9175 55.7871C68.2472 55.7465 68.5622 55.6267 68.8355 55.438C69.1088 55.2493 69.3322 54.9972 69.4867 54.7035C69.6412 54.4097 69.7222 54.0829 69.7227 53.751C69.7231 53.4191 69.6432 53.0921 69.4895 52.7979C69.3355 53.0927 69.1118 53.3456 68.8379 53.5347C68.564 53.7239 68.2481 53.8435 67.9175 53.8832C66.0085 54.1144 63.2075 54.2679 61.3941 53.5382L61.3862 55.4377Z" fill="#371A45"/>
</g>
<path d="M64.9937 56.6021C65.9966 56.5963 66.9982 56.531 67.9933 56.4066C68.6812 56.3224 69.3097 55.9753 69.747 55.4381C70.1842 54.9009 70.3961 54.2154 70.3383 53.5255C70.2805 52.8356 69.9574 52.1949 69.4368 51.7378C68.9162 51.2807 68.2386 51.0429 67.5463 51.0741C64.9235 51.1967 62.7902 51.1138 61.5393 50.8362C61.3114 50.7855 60.5342 50.7252 60.1154 52.0699C59.722 53.3341 59.7795 55.4636 61.1523 56.0188C62.2348 56.4546 63.6206 56.6021 64.9937 56.6021ZM67.6733 52.3193C68.0385 52.3181 68.3902 52.4565 68.6564 52.7062C68.9226 52.9559 69.083 53.298 69.1047 53.6621C69.1264 54.0262 69.0077 54.3848 68.7731 54.6643C68.5384 54.9438 68.2055 55.1229 67.8428 55.165C65.1315 55.4929 62.9204 55.3839 61.6215 54.858C61.3436 54.7462 61.2348 54.283 61.2003 54.0895C61.0598 53.304 61.2646 52.3998 61.4504 52.0913C63.1883 52.4363 65.7377 52.4085 67.6034 52.3209C67.628 52.3193 67.6507 52.3193 67.6733 52.3193Z" fill="#001869"/>
<path d="M47.5205 55.4381C45.7075 56.171 42.9021 56.0179 40.9891 55.7867C40.7168 55.7536 40.4538 55.6663 40.2157 55.5299C39.9777 55.3936 39.7694 55.211 39.6032 54.9929C39.437 54.7748 39.3162 54.5256 39.2479 54.2601C39.1797 53.9946 39.1654 53.7182 39.206 53.447C39.2799 52.9439 39.5384 52.4861 39.9312 52.1626C40.324 51.8391 40.8232 51.6729 41.3317 51.6963C43.1205 51.7799 45.804 51.8192 47.5034 51.4429" fill="white"/>
<g opacity="0.35">
<path d="M40.9891 55.7868C42.9018 56.0168 45.7071 56.1715 47.5205 55.4375L47.5126 53.5205C45.6992 54.2498 42.8986 54.0967 40.9891 53.8655C40.6601 53.8262 40.3455 53.7076 40.0725 53.5199C39.7995 53.3322 39.5762 53.0811 39.4219 52.7881C39.312 52.9942 39.2385 53.2177 39.2048 53.4487C39.1648 53.7198 39.1795 53.9961 39.248 54.2614C39.3165 54.5266 39.4375 54.7755 39.6037 54.9934C39.77 55.2113 39.9782 55.3937 40.2162 55.53C40.4541 55.6662 40.7169 55.7536 40.9891 55.7868Z" fill="#371A45"/>
</g>
<path d="M43.913 56.6027C45.2861 56.6027 46.672 56.4556 47.7545 56.0178C49.1272 55.4626 49.1836 53.3331 48.7914 52.0689C48.3726 50.7242 47.5953 50.7845 47.3675 50.8352C46.1166 51.1128 43.9837 51.1973 41.3601 51.0732C40.6678 51.0421 39.9904 51.28 39.4699 51.7371C38.9495 52.1942 38.6265 52.8349 38.5687 53.5248C38.5109 54.2146 38.7229 54.9 39.16 55.4371C39.5972 55.9743 40.2257 56.3214 40.9135 56.4056C41.9086 56.5306 42.9102 56.5964 43.913 56.6027ZM47.2853 54.8579C45.9844 55.3837 43.7753 55.4923 41.0636 55.1648C40.694 55.1232 40.3551 54.9394 40.1191 54.6523C39.883 54.3651 39.7683 53.9974 39.7993 53.6271C39.8303 53.2569 40.0046 52.9133 40.2851 52.6694C40.5657 52.4254 40.9304 52.3003 41.3017 52.3207C43.1675 52.408 45.7184 52.4361 47.4548 52.0911C47.6406 52.3996 47.8454 53.3038 47.7049 54.0893C47.6704 54.2829 47.5596 54.746 47.2837 54.8579H47.2853Z" fill="#001869"/>
<path d="M46.8189 50.1239V56.5222C46.8206 57.0943 47.0489 57.6425 47.4539 58.0471C47.8589 58.4516 48.4077 58.6797 48.9804 58.6815H60.7795C61.352 58.6794 61.9004 58.4512 62.3051 58.0466C62.7097 57.6421 62.9378 57.0941 62.9395 56.5222V50.1239C62.9378 49.5521 62.7097 49.0042 62.305 48.5999C61.9003 48.1955 61.3519 47.9676 60.7795 47.9658H48.9804C48.4076 47.9669 47.8586 48.1945 47.4535 48.599C47.0484 49.0034 46.8202 49.5517 46.8189 50.1239Z" fill="white"/>
<g opacity="0.35">
<path d="M46.8204 50.1252V56.5235C46.8221 57.0956 47.0503 57.6437 47.4553 58.0482C47.8602 58.4527 48.4089 58.6807 48.9815 58.6824H60.7803C61.3529 58.6807 61.9017 58.4527 62.3066 58.0482C62.7115 57.6437 62.9397 57.0956 62.9414 56.5235V54.1299C61.1693 55.9346 57.6847 57.0676 54.4883 57.0846C53.4614 57.0898 52.6329 56.2785 52.5598 55.255C52.5598 55.245 52.5598 55.2347 52.557 55.2244C52.5154 54.7636 52.3035 54.3348 51.9626 54.0215C51.6218 53.7083 51.1763 53.533 50.7132 53.53C50.25 53.5269 49.8023 53.6962 49.4573 54.0049C49.1123 54.3136 48.8947 54.7396 48.847 55.1998C47.2988 53.292 47.7529 49.9757 47.2611 48.8213C46.9746 49.1956 46.8197 49.6539 46.8204 50.1252Z" fill="#371A45"/>
</g>
<path d="M48.9813 59.3081H60.7809C61.5194 59.3071 62.2274 59.0136 62.7496 58.4919C63.2718 57.9702 63.5656 57.2628 63.5664 56.5251V50.1239C63.5656 49.3862 63.2718 48.6789 62.7496 48.1572C62.2274 47.6356 61.5194 47.3421 60.7809 47.3413H48.9813C48.2428 47.3421 47.5348 47.6356 47.0126 48.1572C46.4903 48.6789 46.1966 49.3862 46.1958 50.1239V56.5251C46.1966 57.2628 46.4903 57.9702 47.0125 58.4919C47.5347 59.0136 48.2428 59.3071 48.9813 59.3081ZM60.7809 48.5916C61.1878 48.5922 61.578 48.7539 61.8658 49.0414C62.1535 49.3288 62.3154 49.7186 62.3159 50.1251V56.5263C62.3154 56.9328 62.1535 57.3225 61.8658 57.61C61.578 57.8975 61.1878 58.0592 60.7809 58.0597H48.9813C48.5743 58.0592 48.1842 57.8975 47.8964 57.61C47.6086 57.3225 47.4467 56.9328 47.4462 56.5263V50.1239C47.4467 49.7174 47.6086 49.3276 47.8964 49.0402C48.1842 48.7527 48.5743 48.591 48.9813 48.5904L60.7809 48.5916Z" fill="#001869"/>
<path d="M49.3831 54.6404C48.6554 53.9135 48.6554 52.7349 49.3831 52.008C50.1108 51.2811 51.2906 51.2811 52.0183 52.008C52.746 52.7349 52.746 53.9135 52.0183 54.6404C51.2906 55.3674 50.1108 55.3674 49.3831 54.6404Z" fill="#001869"/>
<g opacity="0.7">
<path d="M48.8387 53.3243C48.8384 53.4492 48.8505 53.5738 48.8748 53.6963C48.9616 53.2762 49.1907 52.8989 49.5236 52.628C49.8565 52.3571 50.2727 52.2092 50.7021 52.2092C51.1314 52.2092 51.5476 52.3571 51.8805 52.628C52.2134 52.8989 52.4425 53.2762 52.5293 53.6963C52.5534 53.5738 52.5655 53.4492 52.5654 53.3243C52.5654 52.8306 52.3691 52.3572 52.0197 52.0081C51.6702 51.659 51.1962 51.4629 50.7021 51.4629C50.2079 51.4629 49.7339 51.659 49.3844 52.0081C49.035 52.3572 48.8387 52.8306 48.8387 53.3243Z" fill="white"/>
</g>
<g opacity="0.35">
<path d="M48.8375 53.324C48.8375 53.8176 49.0338 54.291 49.3832 54.64C49.7325 54.989 50.2064 55.1851 50.7005 55.1851C51.1946 55.1851 51.6684 54.989 52.0178 54.64C52.3672 54.291 52.5635 53.8176 52.5635 53.324C52.564 53.0933 52.5207 52.8645 52.4356 52.6499C52.2997 52.9991 52.0612 53.2992 51.7516 53.5108C51.442 53.7223 51.0756 53.8355 50.7005 53.8355C50.3254 53.8355 49.959 53.7223 49.6494 53.5108C49.3397 53.2992 49.1013 52.9991 48.9653 52.6499C48.8803 52.8645 48.8369 53.0933 48.8375 53.324Z" fill="#001869"/>
</g>
<path d="M50.7 55.6541C51.1613 55.6541 51.6122 55.5175 51.9957 55.2615C52.3793 55.0055 52.6782 54.6416 52.8547 54.2159C53.0312 53.7902 53.0774 53.3218 52.9874 52.8699C52.8974 52.4179 52.6753 52.0028 52.3491 51.677C52.023 51.3512 51.6074 51.1293 51.155 51.0394C50.7026 50.9495 50.2337 50.9956 49.8075 51.172C49.3814 51.3483 49.0171 51.6469 48.7609 52.03C48.5046 52.4132 48.3678 52.8636 48.3678 53.3244C48.3684 53.9421 48.6144 54.5343 49.0516 54.9711C49.4888 55.4078 50.0817 55.6535 50.7 55.6541ZM50.7 51.9317C50.9758 51.9317 51.2453 52.0134 51.4746 52.1664C51.7038 52.3194 51.8825 52.5369 51.9881 52.7914C52.0936 53.0459 52.1212 53.3259 52.0674 53.5961C52.0136 53.8662 51.8808 54.1144 51.6858 54.3092C51.4909 54.5039 51.2424 54.6366 50.972 54.6903C50.7016 54.744 50.4212 54.7165 50.1665 54.6111C49.9117 54.5056 49.694 54.3271 49.5408 54.0981C49.3876 53.8691 49.3059 53.5998 49.3059 53.3244C49.3063 52.9551 49.4533 52.6011 49.7147 52.3401C49.976 52.079 50.3304 51.9321 50.7 51.9317Z" fill="#001869"/>
<path d="M55.9798 59.1523C56.1042 59.1523 56.2236 59.1029 56.3116 59.015C56.3996 58.9271 56.449 58.8079 56.449 58.6835V55.2835C56.4497 54.9948 56.5172 54.7102 56.6462 54.4518C56.7752 54.1935 56.9621 53.9684 57.1925 53.7941L57.6911 53.4193C58.0374 53.1575 58.3184 52.8193 58.5122 52.4312C58.706 52.043 58.8075 51.6154 58.8086 51.1816V47.9663C58.805 47.8444 58.7541 47.7287 58.6665 47.6437C58.5789 47.5588 58.4617 47.5112 58.3396 47.5112C58.2175 47.5112 58.1002 47.5588 58.0126 47.6437C57.9251 47.7287 57.8741 47.8444 57.8706 47.9663V51.1816C57.8698 51.4702 57.8024 51.7548 57.6734 52.0131C57.5444 52.2714 57.3574 52.4964 57.127 52.6706L56.6284 53.0458C56.2822 53.3076 56.0012 53.6457 55.8073 54.0339C55.6135 54.4221 55.5121 54.8497 55.511 55.2835V58.6835C55.511 58.8078 55.5603 58.9269 55.6482 59.0148C55.7362 59.1027 55.8554 59.1522 55.9798 59.1523Z" fill="#001869"/>
<g opacity="0.35">
<path d="M40.5811 39.1829C41.0086 39.5795 41.4544 39.955 41.9185 40.3072C42.8461 41.0177 43.8365 41.6425 44.8775 42.1737C48.1909 43.8559 51.9232 44.5371 55.618 44.1339C59.3128 43.7307 62.8099 42.2606 65.6816 39.9035C65.7252 39.8702 65.7685 39.8333 65.8102 39.7968C67.3381 38.5176 68.6568 37.008 69.7188 35.3225C68.1985 35.8014 66.6207 36.0736 65.0277 36.1319C65.4454 34.9557 66.2135 33.6629 65.9979 33.0241C65.6407 31.9712 65.3302 31.144 65.0996 30.5599C64.8376 29.8929 64.6804 29.5439 64.6804 29.5439H45.3646C45.3646 29.5439 45.2058 29.8878 44.9355 30.55C44.6576 31.2356 44.2606 32.2615 43.8116 33.6078C43.5338 34.4386 43.2321 35.3923 42.9248 36.4586C42.3119 37.1078 41.4941 38.0234 40.5811 39.1829Z" fill="#371A45"/>
</g>
<path d="M35.288 30.6813C35.3917 30.6662 35.4851 30.6109 35.5481 30.5274C35.6111 30.4438 35.6384 30.3388 35.6243 30.2352L34.0364 18.9731C34.0292 18.9217 34.012 18.8723 33.9857 18.8276C33.9594 18.7829 33.9245 18.7439 33.883 18.7127C33.8416 18.6815 33.7944 18.6587 33.7441 18.6458C33.6939 18.6328 33.6416 18.6299 33.5902 18.6372C32.5011 18.7903 31.5176 19.3694 30.8559 20.2469C30.1942 21.1244 29.9086 22.2286 30.0619 23.3165L30.6034 27.1567C30.6793 27.6954 30.8607 28.2139 31.1372 28.6826C31.4137 29.1513 31.7799 29.561 32.2149 29.8883C32.65 30.2156 33.1452 30.4541 33.6725 30.5901C34.1998 30.7262 34.7488 30.7572 35.288 30.6813Z" fill="white"/>
<path d="M34.7061 30.8432C34.9061 30.8432 35.1059 30.8293 35.304 30.8016C35.3713 30.7922 35.4361 30.7697 35.4946 30.7353C35.5532 30.7009 35.6044 30.6552 35.6453 30.601C35.6861 30.5467 35.7159 30.485 35.7328 30.4192C35.7497 30.3535 35.7534 30.285 35.7438 30.2178L34.1559 18.9558C34.1466 18.8886 34.124 18.8239 34.0896 18.7654C34.0552 18.7069 34.0095 18.6558 33.9553 18.615C33.901 18.5742 33.8392 18.5444 33.7735 18.5275C33.7077 18.5106 33.6392 18.5068 33.572 18.5164C32.4517 18.6747 31.4402 19.2708 30.7597 20.1737C30.0791 21.0766 29.7852 22.2125 29.9425 23.3317L30.4839 27.1719C30.6283 28.1887 31.1345 29.1195 31.91 29.7938C32.6854 30.468 33.6781 30.8406 34.7061 30.8432ZM33.645 18.7547C33.7108 18.7547 33.7744 18.7784 33.824 18.8216C33.8736 18.8647 33.906 18.9244 33.915 18.9895L35.5029 30.2516C35.5079 30.287 35.5059 30.3232 35.4969 30.3579C35.488 30.3926 35.4723 30.4252 35.4507 30.4539C35.4292 30.4825 35.4022 30.5067 35.3713 30.5249C35.3404 30.5431 35.3062 30.5551 35.2706 30.5601C34.2138 30.7072 33.1418 30.4297 32.2896 29.7883C31.4374 29.1468 30.8747 28.1939 30.7249 27.1386L30.1834 23.298C30.0359 22.2423 30.3135 21.1712 30.9554 20.3197C31.5974 19.4682 32.5512 18.9058 33.6077 18.7559C33.6206 18.7547 33.6336 18.7543 33.6466 18.7547H33.645Z" fill="#371A45"/>
<g opacity="0.35">
<path d="M30.3505 25.354L30.6037 27.1551C30.7574 28.2429 31.3372 29.2251 32.2155 29.886C33.0939 30.5469 34.199 30.8324 35.288 30.6797C35.3917 30.6647 35.4852 30.6093 35.5482 30.5256C35.6112 30.442 35.6385 30.3369 35.6242 30.2332L35.2034 27.2388C35.1823 27.3119 35.1406 27.3774 35.0832 27.4275C35.0258 27.4775 34.9553 27.5101 34.8799 27.5212L34.6123 27.558C33.7608 27.6778 32.8931 27.53 32.1295 27.1351C31.3658 26.7402 30.7441 26.1177 30.3505 25.354Z" fill="#371A45"/>
</g>
<path d="M34.7063 31.3987C34.9321 31.3987 35.1576 31.3828 35.3812 31.3512C35.663 31.3113 35.9175 31.1614 36.0887 30.9342C36.2599 30.707 36.3339 30.4213 36.2942 30.1397L34.7063 18.8776C34.6665 18.5961 34.5164 18.3418 34.289 18.1708C34.0616 17.9998 33.7755 17.9259 33.4936 17.9655C32.227 18.1447 31.0835 18.8189 30.3144 19.8399C29.5452 20.8609 29.2133 22.1452 29.3917 23.4106L29.9332 27.2512C30.0968 28.4002 30.6694 29.4519 31.546 30.2136C32.4226 30.9753 33.5445 31.396 34.7063 31.3987ZM34.9116 30.0378C34.0425 30.0875 33.1865 29.8095 32.5129 29.2587C31.8393 28.7079 31.3974 27.9245 31.2745 27.0636L30.7335 23.2234C30.613 22.362 30.8209 21.4868 31.3158 20.7713C31.8108 20.0557 32.5567 19.552 33.4059 19.3598L34.9116 30.0378Z" fill="#001869"/>
<path d="M70.8037 13.4024C70.7523 13.4095 70.7029 13.4267 70.6581 13.453C70.6134 13.4793 70.5743 13.5141 70.5431 13.5555C70.5118 13.5969 70.4891 13.6441 70.4761 13.6943C70.4632 13.7445 70.4602 13.7968 70.4675 13.8481L72.0554 25.1102C72.0704 25.2137 72.1256 25.3071 72.2092 25.37C72.2928 25.433 72.3979 25.4605 72.5016 25.4464C73.5906 25.2932 74.5741 24.7142 75.2357 23.8366C75.8974 22.9591 76.183 21.855 76.0299 20.7671L75.4884 16.9269C75.4125 16.3882 75.2312 15.8697 74.9547 15.4009C74.6782 14.9322 74.312 14.5225 73.877 14.1952C73.4419 13.8679 72.9466 13.6295 72.4193 13.4934C71.892 13.3574 71.343 13.3264 70.8037 13.4024Z" fill="white"/>
<path d="M72.4469 25.5719C72.4711 25.5719 72.4952 25.5703 72.5192 25.5671C73.0742 25.4891 73.6085 25.3025 74.0914 25.0182C74.5743 24.7339 74.9964 24.3573 75.3336 23.91C75.6709 23.4627 75.9166 22.9535 76.0568 22.4113C76.1969 21.8691 76.2288 21.3047 76.1506 20.7502L75.6096 16.9096C75.5314 16.3551 75.3447 15.8214 75.0601 15.339C74.7755 14.8566 74.3985 14.4349 73.9507 14.0981C73.503 13.7612 72.9932 13.5157 72.4504 13.3757C71.9077 13.2357 71.3426 13.2038 70.7876 13.2819C70.7203 13.2913 70.6555 13.3138 70.597 13.3482C70.5385 13.3826 70.4873 13.4282 70.4464 13.4824C70.4056 13.5366 70.3758 13.5983 70.3589 13.664C70.3419 13.7297 70.3381 13.7981 70.3477 13.8653L71.9356 25.1273C71.9528 25.2506 72.014 25.3635 72.108 25.4452C72.2019 25.5269 72.3223 25.5719 72.4469 25.5719ZM71.3914 13.4826C72.3602 13.485 73.2956 13.8364 74.0261 14.4721C74.7565 15.1078 75.2331 15.9854 75.3682 16.9437L75.9097 20.7839C75.9834 21.3067 75.9533 21.839 75.8211 22.3502C75.6889 22.8614 75.4572 23.3416 75.1393 23.7634C74.8213 24.1852 74.4233 24.5403 73.9679 24.8084C73.5126 25.0765 73.0088 25.2524 72.4854 25.326C72.4498 25.3311 72.4136 25.3291 72.3788 25.3202C72.344 25.3113 72.3113 25.2955 72.2826 25.2739C72.2539 25.2524 72.2298 25.2253 72.2116 25.1944C72.1934 25.1634 72.1815 25.1292 72.1766 25.0936L70.5887 13.8316C70.5835 13.796 70.5855 13.7599 70.5944 13.7251C70.6033 13.6904 70.6189 13.6577 70.6405 13.629C70.6621 13.6003 70.6892 13.5762 70.7201 13.558C70.7511 13.5398 70.7853 13.5279 70.8209 13.523C71.0099 13.4962 71.2005 13.4827 71.3914 13.4826Z" fill="#371A45"/>
<g opacity="0.35">
<path d="M71.6141 21.9863L72.0547 25.1107C72.0698 25.2143 72.1253 25.3079 72.2091 25.3708C72.2929 25.4337 72.3983 25.461 72.5021 25.4466C73.0414 25.3709 73.5604 25.1897 74.0296 24.9136C74.4988 24.6374 74.9088 24.2716 75.2364 23.837C75.564 23.4025 75.8027 22.9077 75.9388 22.381C76.0749 21.8542 76.1057 21.3059 76.0296 20.7673L75.8014 19.1489C75.5766 19.9127 75.1363 20.5956 74.5332 21.116C73.9301 21.6364 73.1897 21.9723 72.4005 22.0834L71.9889 22.1409C71.9183 22.1509 71.8463 22.1419 71.7803 22.1147C71.7144 22.0875 71.657 22.0431 71.6141 21.9863Z" fill="#371A45"/>
</g>
<path d="M72.4458 26.1275C72.4961 26.1274 72.5464 26.1239 72.5962 26.1168C73.8633 25.9385 75.0076 25.2647 75.7773 24.2436C76.5471 23.2226 76.8793 21.9379 76.7009 20.6721L76.1594 16.8319C76.0711 16.2051 75.8601 15.6019 75.5383 15.0566C75.2166 14.5113 74.7905 14.0347 74.2844 13.6539C73.7783 13.2731 73.2021 12.9956 72.5886 12.8373C71.9751 12.679 71.3364 12.6429 70.709 12.7312C70.5694 12.7506 70.435 12.7974 70.3135 12.8689C70.192 12.9403 70.0858 13.035 70.001 13.1475C69.9161 13.26 69.8544 13.3881 69.8192 13.5244C69.784 13.6608 69.7761 13.8028 69.796 13.9422L71.3839 25.2043C71.4202 25.46 71.5476 25.694 71.7426 25.8636C71.9376 26.0331 72.1872 26.1268 72.4458 26.1275ZM71.3894 14.0382C72.2243 14.0404 73.0304 14.3432 73.6599 14.891C74.2894 15.4388 74.7002 16.1949 74.8169 17.0207L75.356 20.8609C75.4774 21.7225 75.27 22.5982 74.7749 23.3141C74.2798 24.0299 73.5333 24.5336 72.6835 24.7249L71.1778 14.0445C71.2497 14.0402 71.3196 14.0382 71.3894 14.0382Z" fill="#001869"/>
<path d="M53.0428 41.4223C42.3276 41.4223 33.6412 32.7451 33.6412 22.0412C33.6412 11.3374 42.3276 2.66016 53.0428 2.66016C63.758 2.66016 72.4443 11.3374 72.4443 22.0412C72.4443 32.7451 63.758 41.4223 53.0428 41.4223Z" fill="white"/>
<path d="M53.0399 41.5461C54.4144 41.5456 55.7849 41.4 57.1287 41.1119C67.6552 38.8611 74.3859 28.4746 72.1342 17.9592C69.8826 7.44385 59.4844 0.719511 48.9571 2.96955C38.4298 5.21958 31.6996 15.6073 33.9516 26.1226C35.913 35.2675 44.0327 41.5461 53.0399 41.5461ZM53.0479 2.78C61.9436 2.78 69.9588 8.9785 71.8964 18.01C74.1215 28.3945 67.4746 38.6509 57.0795 40.874C46.6844 43.0971 36.4168 36.4572 34.1902 26.0727C31.9636 15.6882 38.612 5.43174 49.0071 3.20867C50.3347 2.92441 51.6886 2.78072 53.0463 2.78H53.0479Z" fill="#371A45"/>
<g opacity="0.35">
<path d="M33.6924 23.436C33.7569 24.3312 33.8838 25.2208 34.0723 26.0984C36.3168 36.5646 46.6285 43.233 57.1058 40.9937C67.583 38.7544 74.2585 28.4512 72.0168 17.9846C71.9525 17.6836 71.881 17.3838 71.8028 17.0903C72.5007 26.5889 66.0988 35.3865 56.5119 37.4366C46.336 39.6121 36.318 33.3847 33.6924 23.436Z" fill="#371A45"/>
</g>
<path d="M53.0396 42.1022C54.454 42.1017 55.8645 41.9519 57.2474 41.6553C68.074 39.3402 74.9964 28.6583 72.6789 17.8431C70.3614 7.02796 59.6674 0.112489 48.8412 2.42756C38.015 4.74263 31.0922 15.425 33.4097 26.2401C35.4248 35.6459 43.7758 42.1022 53.0396 42.1022ZM53.0463 3.33606C61.6852 3.33606 69.4714 9.35533 71.351 18.1275C73.5117 28.2122 67.057 38.1728 56.9616 40.3316C46.8663 42.4904 36.8947 36.0421 34.7336 25.9574C32.5725 15.8727 39.0293 5.91127 49.1246 3.75244C50.4135 3.47625 51.7281 3.33668 53.0463 3.33606Z" fill="#001869"/>
<path d="M34.2374 26.5719C34.9758 30.2923 36.8705 33.5064 39.5052 35.9543C41.4805 37.7895 48.5959 40.2767 56.4785 38.7888C63.7867 37.4092 69.6528 32.2084 70.7774 29.7593C72.2775 26.4921 72.8019 22.7987 72.0624 19.0786C70.1077 9.23419 60.8309 6.83029 50.3866 8.8999C39.9423 10.9695 32.2847 16.7274 34.2374 26.5719Z" fill="#001869"/>
<g opacity="0.5">
<path d="M37.8 24.9303C37.1053 23.1677 37.5786 21.3313 38.8571 20.8285C40.1355 20.3257 41.7351 21.3469 42.4297 23.1094C43.1244 24.872 42.6511 26.7084 41.3726 27.2112C40.0942 27.714 38.4946 26.6928 37.8 24.9303Z" fill="white"/>
</g>
<g opacity="0.5">
<path d="M43.2525 30.7539C42.8249 29.9966 43.0056 29.0855 43.6561 28.7189C44.3067 28.3523 45.1808 28.6689 45.6084 29.4262C46.0361 30.1835 45.8554 31.0946 45.2049 31.4612C44.5543 31.8279 43.6802 31.5112 43.2525 30.7539Z" fill="white"/>
</g>
<g opacity="0.35">
<path d="M36.0923 16.6597C34.2178 19.3217 33.4528 22.6179 34.2372 26.5735C34.976 30.2943 36.8711 33.5084 39.5046 35.9567C41.4804 37.7915 48.5953 40.2791 56.4787 38.7912C59.2619 38.2666 61.8346 37.1872 64.0176 35.9154C54.2898 37.5373 45.6144 34.4732 43.1651 32.1966C39.8206 29.09 37.4162 25.0099 36.4797 20.2889C36.238 19.0938 36.1083 17.8788 36.0923 16.6597Z" fill="#111A28"/>
</g>
<path d="M34.1499 18.219C34.2385 18.2191 34.3261 18.1997 34.4063 18.1621C34.4865 18.1245 34.5574 18.0698 34.614 18.0017L34.6664 17.941L34.7021 17.8617C37.0018 12.7684 42.6562 8.98844 50.2161 7.49066C57.8177 5.98376 64.498 7.40738 68.5451 11.3927L68.5915 11.4324C68.7126 11.5368 68.8702 11.5889 69.0298 11.5773C69.1893 11.5656 69.3377 11.4911 69.4422 11.3701C69.5468 11.2492 69.5989 11.0917 69.5873 10.9323C69.5756 10.773 69.501 10.6248 69.3799 10.5203C65.0426 6.25897 57.9734 4.72272 49.9815 6.30616C42.0489 7.87809 36.0876 11.8975 33.6164 17.3335C33.5673 17.4253 33.5429 17.5284 33.5456 17.6325C33.5483 17.7366 33.5779 17.8382 33.6317 17.9274C33.6854 18.0167 33.7615 18.0904 33.8523 18.1415C33.9431 18.1926 34.0457 18.2193 34.1499 18.219Z" fill="#001869"/>
<g opacity="0.5">
<path d="M68.9772 25.776C68.9772 25.776 70.1014 15.4601 64.0944 12.628C58.0875 9.79579 50.551 11.3047 50.8229 11.7516C50.8229 11.7516 59.5686 12.1164 64.1421 18.0599C67.6691 22.6445 68.9772 25.776 68.9772 25.776Z" fill="white"/>
</g>
<path d="M38.9326 85.3467C38.6677 85.3467 38.453 85.1323 38.453 84.8677C38.453 84.6031 38.6677 84.3887 38.9326 84.3887C39.1974 84.3887 39.4121 84.6031 39.4121 84.8677C39.4121 85.1323 39.1974 85.3467 38.9326 85.3467Z" fill="#371A45"/>
<g opacity="0.3">
<path d="M49.5088 62.9073C49.5088 62.9073 42.8337 60.5823 37.3111 66.1887C32.2358 71.3411 38.1681 76.4249 38.1681 76.4249C38.1681 76.4249 36.3421 83.4459 41.0863 84.3465C45.1143 85.111 48.7546 81.2216 48.2893 76.4099C47.9066 72.4531 47.0369 72.8219 47.3572 70.6515C47.7201 68.1929 52.9632 67.6413 52.9632 67.6413H54.9354C54.9354 67.6413 60.1786 68.1965 60.5414 70.6515C60.8618 72.8219 59.992 72.4531 59.6093 76.4099C59.1441 81.2216 62.7851 85.111 66.8124 84.3465C71.5585 83.4459 69.7305 76.4249 69.7305 76.4249C69.7305 76.4249 75.6628 71.3411 70.5876 66.1887C65.0649 60.5803 58.3898 62.9073 58.3898 62.9073H49.5088Z" fill="#371A45"/>
</g>
<path d="M48.5692 60.8736C48.5692 60.8736 40.4809 56.1637 33.7891 62.9575C27.6409 69.2004 34.826 75.3588 34.826 75.3588C34.826 75.3588 32.6109 83.8665 38.3623 84.9578C43.245 85.8837 47.6537 81.1711 47.09 75.3406C46.6264 70.5463 45.5728 70.9928 45.9611 68.3636C46.4005 65.3863 52.7536 64.7154 52.7536 64.7154H55.1434C55.1434 64.7154 61.4949 65.3859 61.936 68.3636C62.3242 70.9928 61.2702 70.5447 60.807 75.3406C60.2429 81.1699 64.6536 85.8837 69.5344 84.9578C75.2857 83.8665 73.0706 75.3588 73.0706 75.3588C73.0706 75.3588 80.2585 69.1988 74.1091 62.9559C67.4173 56.1621 59.3291 60.872 59.3291 60.872" fill="white"/>
<g opacity="0.35">
<path d="M35.2583 83.0646C35.851 83.9537 36.8208 84.6679 38.363 84.9598C43.2457 85.8861 47.6553 81.1719 47.0912 75.3422C46.6275 70.5475 45.5744 70.994 45.9618 68.3656C46.4017 65.3883 52.7556 64.7174 52.7556 64.7174H55.1453C55.1453 64.7174 61.4969 65.3875 61.9371 68.3656C62.3261 70.994 61.2714 70.5467 60.8077 75.3422C60.2436 81.1715 64.6548 85.8861 69.5359 84.9598C71.0781 84.6679 72.0479 83.9537 72.6406 83.0646C72.5981 83.073 72.5557 83.0813 72.5132 83.0884C66.6996 84.0909 61.4464 79.1174 62.1173 72.8023C62.6707 67.6106 63.9259 68.0944 63.4623 65.2456C62.9391 62.022 55.3728 61.2959 55.3728 61.2959H52.5261C52.5261 61.2959 44.9599 62.022 44.4367 65.2456C43.9746 68.0944 45.2306 67.6106 45.7816 72.8023C46.4525 79.1174 41.1994 84.0909 35.3857 83.0884C35.3421 83.0813 35.3023 83.073 35.2583 83.0646Z" fill="#371A45"/>
</g>
<path d="M48.6731 60.6938C47.5938 59.9527 46.3925 59.4511 45.1317 59.1076C44.4985 58.9372 43.8531 58.8155 43.2013 58.7436C42.543 58.68 41.8807 58.6667 41.2204 58.7039C40.5571 58.7408 39.8985 58.8546 39.2486 59.0029C38.5988 59.1513 37.9696 59.3852 37.3527 59.6374C36.1336 60.1831 35.0165 60.9338 34.0305 61.8093C33.0527 62.6778 32.1687 63.7195 31.5343 64.9239C31.2208 65.535 30.9847 66.1828 30.8317 66.8523C30.6914 67.528 30.6463 68.2199 30.6975 68.908C30.7979 70.2817 31.2699 71.5848 31.9305 72.7356C32.2609 73.3097 32.6353 73.8576 33.0503 74.3741C33.258 74.6303 33.4711 74.8821 33.6974 75.1228C33.8101 75.2441 33.9249 75.3631 34.0432 75.4797C34.1615 75.5963 34.2758 75.7073 34.4203 75.8338L34.2218 75.2025C34.1071 75.6692 34.0305 76.0999 33.9618 76.5508C33.8931 77.0017 33.8467 77.4474 33.8169 77.8991C33.7486 78.8144 33.7803 79.7343 33.9114 80.6428C33.9834 81.1088 34.0932 81.5682 34.2397 82.0165C34.3964 82.4761 34.6032 82.9172 34.8562 83.3318C35.1269 83.7518 35.4557 84.1315 35.8327 84.4596C36.2193 84.7783 36.65 85.0396 37.1114 85.2353C37.5639 85.4153 38.0359 85.5423 38.5178 85.6136C38.7524 85.6564 38.9918 85.6675 39.2296 85.6893C39.4678 85.6921 39.7059 85.706 39.9441 85.6865C40.422 85.6654 40.8963 85.5936 41.3589 85.4724C41.8213 85.3563 42.2706 85.1936 42.6999 84.9866C44.4224 84.1689 45.778 82.7366 46.6299 81.0865C47.4834 79.4297 47.8538 77.5469 47.7414 75.7049C47.7156 75.2362 47.6573 74.8067 47.6073 74.361L47.512 73.696L47.3929 73.031C47.3012 72.588 47.2023 72.1431 47.0709 71.7065C46.9467 71.2703 46.7903 70.8408 46.674 70.457C46.5583 70.1 46.5007 69.7269 46.5033 69.3518C46.5017 69.2553 46.5051 69.1588 46.5136 69.0627C46.5199 68.9651 46.5243 68.868 46.5394 68.7665L46.5763 68.4647C46.5954 68.3854 46.6057 68.3108 46.6283 68.2351C46.8062 67.6371 47.3826 67.1085 48.0705 66.7234C48.7585 66.3384 49.5488 66.0493 50.3539 65.8244C51.1621 65.6029 51.9853 65.44 52.8171 65.3371L52.7516 65.3402H55.1414L55.0755 65.3371C55.9074 65.4399 56.7307 65.6028 57.5391 65.8244C58.3441 66.0481 59.1321 66.3324 59.8224 66.7234C60.5128 67.1144 61.0864 67.6355 61.2642 68.2351C61.2869 68.3108 61.2972 68.3846 61.3166 68.4647L61.3536 68.7665C61.3686 68.868 61.373 68.9647 61.379 69.0627C61.3878 69.1588 61.3914 69.2553 61.3897 69.3518C61.3924 69.7269 61.3346 70.1001 61.2186 70.457C61.1019 70.8408 60.9455 71.2707 60.8216 71.7065C60.6906 72.1427 60.5918 72.588 60.4997 73.031L60.3806 73.696L60.2857 74.361C60.2357 74.8067 60.1773 75.2362 60.1515 75.7049C60.0384 77.5469 60.4084 79.4297 61.263 81.0865C62.1153 82.7366 63.4714 84.1689 65.1931 84.9866C65.6223 85.1935 66.0715 85.3563 66.5336 85.4724C66.9965 85.5936 67.4708 85.6654 67.9488 85.6865C68.187 85.706 68.4252 85.6921 68.6634 85.6893C68.9016 85.6675 69.1397 85.6564 69.3751 85.6136C69.857 85.5422 70.329 85.4153 70.7816 85.2353C71.243 85.0395 71.6736 84.7782 72.0603 84.4596C72.4373 84.1315 72.766 83.7518 73.0368 83.3318C73.2896 82.9171 73.4964 82.476 73.6533 82.0165C73.7994 81.5681 73.9092 81.1087 73.9816 80.6428C74.1126 79.7343 74.1443 78.8144 74.0761 77.8991C74.0462 77.4467 73.9979 76.9973 73.9312 76.5508C73.8625 76.0995 73.7859 75.6688 73.6712 75.2025L73.4727 75.8338C73.6172 75.7073 73.7287 75.5994 73.8498 75.4797C73.9709 75.3599 74.0828 75.2418 74.1956 75.1228C74.4218 74.8821 74.635 74.6303 74.8426 74.3741C75.2575 73.8575 75.6319 73.3097 75.9625 72.7356C76.6218 71.5856 77.097 70.2821 77.1931 68.908C77.2423 68.2202 77.1949 67.5289 77.0522 66.8543C76.8986 66.186 76.6622 65.5395 76.3483 64.9298C75.7064 63.7322 74.8188 62.7 73.8371 61.8411C72.8542 60.9687 71.7486 60.2093 70.5323 59.6632C69.3231 59.108 68.0108 58.7511 66.6817 58.6552C66.019 58.6105 65.3538 58.6189 64.6925 58.6802C64.0368 58.7479 63.3874 58.8656 62.7497 59.0323C62.1189 59.2047 61.5032 59.428 60.9086 59.7001C60.3163 59.9757 59.7514 60.2874 59.2242 60.6915C59.1841 60.7218 59.1562 60.7654 59.1456 60.8145C59.135 60.8636 59.1424 60.9149 59.1664 60.959C59.1905 61.0031 59.2295 61.0372 59.2766 61.0549C59.3236 61.0727 59.3754 61.0731 59.4227 61.0559L59.4358 61.0515C60.5938 60.6492 61.784 60.3462 62.9934 60.1458C63.5889 60.0467 64.1907 59.9923 64.7878 59.9535C65.0871 59.9499 65.386 59.9321 65.6833 59.9452C65.8322 59.9495 65.9814 59.9491 66.1299 59.9567L66.5745 59.9888C67.7584 60.0848 68.9191 60.3708 70.0119 60.8358C70.5591 61.0712 71.0847 61.354 71.5827 61.6809C72.0862 62.006 72.5627 62.3713 73.0074 62.773C73.9205 63.57 74.6918 64.4853 75.242 65.5092C75.5061 66.0193 75.7061 66.5601 75.8374 67.1192C75.955 67.6776 75.994 68.2496 75.9534 68.8188C75.874 69.9613 75.473 71.0875 74.8839 72.1153C74.5857 72.6326 74.2483 73.1261 73.8744 73.5917C73.6859 73.8245 73.4917 74.0537 73.2873 74.2714C73.1853 74.3808 73.0817 74.4883 72.9765 74.5926C72.8713 74.6969 72.7585 74.8048 72.666 74.8857L72.3755 75.1402L72.4679 75.517C72.5608 75.8965 72.6398 76.3243 72.701 76.7344C72.7621 77.1444 72.8078 77.5671 72.8351 77.9831C72.8972 78.8069 72.8696 79.635 72.753 80.4528C72.6913 80.8482 72.5984 81.238 72.4751 81.6187C72.3502 81.9841 72.1863 82.3351 71.9864 82.6656C71.7836 82.9785 71.5387 83.2619 71.2584 83.5079C70.9704 83.7431 70.6508 83.9366 70.3088 84.0829C69.95 84.2238 69.5763 84.3233 69.1949 84.3795C69.0004 84.4164 68.8027 84.4231 68.6066 84.4426C68.4081 84.4426 68.2124 84.4572 68.0159 84.4398C67.6218 84.4229 67.2307 84.3638 66.8492 84.2633C66.465 84.1671 66.0916 84.0318 65.7349 83.8596C64.2959 83.178 63.1213 81.9538 62.3781 80.5143C61.635 79.0748 61.3063 77.4133 61.4052 75.7787C61.4262 75.377 61.4846 74.9424 61.5314 74.5224L61.6211 73.8939L61.7307 73.2721C61.8164 72.8621 61.9061 72.456 62.026 72.0574C62.1459 71.6589 62.2833 71.2643 62.423 70.8166C62.5733 70.3421 62.6487 69.8471 62.6465 69.3494C62.6501 69.2245 62.6413 69.1055 62.6334 68.9858C62.6255 68.866 62.6195 68.7454 62.6028 68.6316L62.56 68.2846C62.5334 68.1522 62.5087 68.0098 62.4686 67.8774C62.3055 67.3393 61.9879 66.8793 61.6283 66.5184C61.2686 66.1575 60.8617 65.8752 60.4485 65.6389C59.6192 65.1705 58.751 64.8644 57.8785 64.6209C57.004 64.3805 56.1131 64.2048 55.2128 64.0951L55.1846 64.0915H52.7202L52.6917 64.0951C51.7915 64.2048 50.9007 64.3805 50.0264 64.6209C49.1531 64.8644 48.2857 65.1705 47.456 65.6389C47.0432 65.8768 46.6379 66.1544 46.2766 66.5184C45.9154 66.8824 45.5994 67.3393 45.4362 67.8774C45.3965 68.0098 45.3711 68.1522 45.3449 68.2846L45.302 68.6316C45.2854 68.7454 45.279 68.866 45.2715 68.9858C45.2639 69.1055 45.2548 69.2237 45.2584 69.3494C45.2562 69.8471 45.3316 70.3421 45.4819 70.8166C45.62 71.2663 45.7625 71.6553 45.8788 72.0574C45.9952 72.4595 46.0884 72.8621 46.1738 73.2721L46.2838 73.8939L46.3735 74.5224C46.4207 74.9424 46.4787 75.377 46.4997 75.7787C46.6001 77.4133 46.2703 79.0701 45.5263 80.5143C44.7824 81.9586 43.609 83.178 42.1699 83.8596C41.8133 84.0318 41.4399 84.1671 41.0556 84.2633C40.6742 84.3638 40.2831 84.4229 39.889 84.4398C39.6925 84.4572 39.4952 84.4434 39.2983 84.4426C39.1022 84.4231 38.9045 84.4164 38.71 84.3795C38.3285 84.3234 37.9548 84.2239 37.5961 84.0829C37.254 83.9366 36.9343 83.743 36.6461 83.5079C36.3661 83.2618 36.1212 82.9784 35.9185 82.6656C35.7185 82.3351 35.5547 81.9841 35.4298 81.6187C35.3063 81.2381 35.2133 80.8482 35.1519 80.4528C35.0351 79.635 35.0074 78.8069 35.0693 77.9831C35.0971 77.5663 35.142 77.1504 35.2039 76.7344C35.2658 76.3184 35.3436 75.8965 35.4369 75.517L35.5294 75.1402L35.2388 74.8857C35.1463 74.8063 35.0304 74.6945 34.9284 74.5926C34.8264 74.4907 34.7192 74.3808 34.6176 74.2714C34.4131 74.0537 34.2206 73.8245 34.0305 73.5917C33.6566 73.1261 33.3191 72.6326 33.021 72.1153C32.4327 71.0875 32.0285 69.9617 31.9535 68.8184C31.9153 68.2497 31.9566 67.6785 32.0762 67.1212C32.2094 66.5638 32.411 66.0251 32.6764 65.5171C33.2322 64.5004 34.0122 63.5982 34.9236 62.8051C35.8149 62.0138 36.8181 61.3583 37.9009 60.8596C38.9858 60.3732 40.1423 60.0652 41.3256 59.9475C42.5121 59.8242 43.7245 59.8817 44.9253 60.076C46.1377 60.2737 47.3252 60.601 48.4675 61.0523L48.4818 61.0579C48.5295 61.0769 48.5825 61.0777 48.6308 61.0601C48.6791 61.0425 48.7192 61.0078 48.7434 60.9625C48.7676 60.9173 48.7743 60.8647 48.7621 60.8148C48.75 60.765 48.7198 60.7213 48.6775 60.6923L48.6731 60.6938Z" fill="#001869"/>
<path d="M34.5879 75.9408L35.0182 76.0776C35.177 76.1224 35.3357 76.1636 35.4977 76.1942C35.8152 76.2576 36.1375 76.2944 36.4612 76.304C37.0872 76.3191 37.7128 76.258 38.3241 76.122C38.9151 75.983 39.4934 75.7949 40.0529 75.5597C40.3308 75.4499 40.5976 75.3091 40.8679 75.1861C41.1323 75.0485 41.3919 74.903 41.6523 74.763C41.3701 74.8558 41.091 74.953 40.8104 75.0406C40.5242 75.1136 40.2447 75.204 39.9573 75.2615C39.3927 75.3896 38.8184 75.4702 38.2404 75.5026C37.6805 75.5271 37.1197 75.4836 36.5703 75.3729C36.3066 75.3181 36.0481 75.241 35.7974 75.1425C35.674 75.0953 35.5545 75.0402 35.4362 74.9839L35.0491 74.7801C34.9759 74.7375 34.8947 74.7101 34.8105 74.6996C34.7264 74.6892 34.641 74.6958 34.5595 74.7192C34.478 74.7425 34.4021 74.7821 34.3362 74.8355C34.2704 74.889 34.2161 74.9551 34.1766 75.0301C34.1371 75.105 34.1131 75.1871 34.1061 75.2716C34.0992 75.356 34.1094 75.4409 34.1362 75.5213C34.163 75.6017 34.2058 75.6758 34.262 75.7392C34.3181 75.8027 34.3866 75.8541 34.4632 75.8904C34.4949 75.9071 34.528 75.9212 34.5621 75.9325L34.5879 75.9408Z" fill="#001869"/>
<path d="M72.7851 74.7797L72.3977 74.9835C72.2786 75.041 72.1595 75.0962 72.0368 75.1422C71.7862 75.2406 71.5276 75.3177 71.2639 75.3726C70.7146 75.4832 70.1538 75.5268 69.5939 75.5022C69.0157 75.4698 68.4413 75.3892 67.8766 75.2611C67.5896 75.2036 67.3101 75.1132 67.0239 75.0402C66.7432 74.9522 66.4642 74.8551 66.1819 74.7627C66.4423 74.9026 66.7016 75.0482 66.9663 75.1858C67.2367 75.3087 67.5022 75.4495 67.7813 75.5593C68.3409 75.7946 68.9191 75.9827 69.5101 76.1216C70.1214 76.2576 70.747 76.3187 71.3731 76.3037C71.6966 76.294 72.0188 76.2573 72.3362 76.1938C72.4973 76.1633 72.6573 76.122 72.8161 76.0772L73.246 75.9404L73.2686 75.9333C73.3477 75.9086 73.4211 75.8686 73.4847 75.8155C73.5482 75.7623 73.6006 75.6972 73.6389 75.6238C73.6771 75.5504 73.7005 75.4702 73.7076 75.3877C73.7148 75.3053 73.7055 75.2222 73.6804 75.1434C73.6553 75.0645 73.6148 74.9914 73.5613 74.9282C73.5079 74.865 73.4424 74.8129 73.3687 74.7751C73.295 74.7372 73.2146 74.7143 73.132 74.7076C73.0494 74.7009 72.9664 74.7106 72.8875 74.7361C72.8523 74.7478 72.818 74.7624 72.7851 74.7797Z" fill="#001869"/>
<path d="M31.5807 70.8116C31.6505 70.8114 31.7195 70.7956 31.7825 70.7655C31.8455 70.7353 31.901 70.6915 31.945 70.6372C31.9889 70.583 32.0202 70.5196 32.0366 70.4517C32.0529 70.3839 32.054 70.3132 32.0396 70.2449C31.8236 69.2373 31.9808 68.5227 32.5207 68.0603C34.7588 66.1418 42.8022 68.5925 45.712 69.6989C45.8283 69.7431 45.9573 69.7393 46.0708 69.6884C46.1842 69.6376 46.2728 69.5437 46.317 69.4276C46.3612 69.3115 46.3575 69.1826 46.3065 69.0693C46.2556 68.956 46.1617 68.8675 46.0455 68.8233C44.9213 68.3958 34.9728 64.7237 31.9102 67.3489C31.0968 68.046 30.832 69.0862 31.1226 70.442C31.1451 70.5466 31.2029 70.6404 31.2863 70.7076C31.3696 70.7749 31.4735 70.8116 31.5807 70.8116Z" fill="#001869"/>
<path d="M76.129 70.8116C76.2361 70.8114 76.3399 70.7747 76.4232 70.7074C76.5065 70.6402 76.5644 70.5466 76.5871 70.442C76.8777 69.087 76.6125 68.0468 75.7995 67.3489C72.7365 64.7237 62.788 68.3958 61.6638 68.8233C61.6062 68.8452 61.5535 68.8782 61.5088 68.9204C61.464 68.9627 61.428 69.0133 61.4028 69.0694C61.3776 69.1256 61.3637 69.1861 61.3619 69.2476C61.3601 69.3091 61.3705 69.3703 61.3924 69.4278C61.4144 69.4853 61.4474 69.5379 61.4897 69.5827C61.5319 69.6274 61.5826 69.6634 61.6388 69.6886C61.695 69.7137 61.7556 69.7276 61.8172 69.7294C61.8788 69.7311 61.9401 69.7208 61.9976 69.6989C64.9082 68.5929 72.954 66.1426 75.1886 68.0603C75.7284 68.5231 75.8856 69.2377 75.6697 70.2449C75.6553 70.3133 75.6563 70.384 75.6727 70.4518C75.6891 70.5197 75.7204 70.5831 75.7644 70.6374C75.8084 70.6917 75.8639 70.7355 75.927 70.7656C75.9901 70.7957 76.0591 70.8115 76.129 70.8116Z" fill="#001869"/>
</svg>
