<svg width="54" height="10" viewBox="0 0 54 10" fill="none" xmlns="http://www.w3.org/2000/svg">
<g clip-path="url(#clip0_132_737)">
<path d="M6.01246 4.16657L5.39996 2.1499C5.27913 1.75407 4.7208 1.75407 4.60413 2.1499L3.98746 4.16657H2.1333C1.72913 4.16657 1.56246 4.6874 1.89163 4.92074L3.4083 6.00407L2.81246 7.9249C2.69163 8.3124 3.14163 8.6249 3.46246 8.37907L4.99996 7.2124L6.53746 8.38324C6.8583 8.62907 7.3083 8.31657 7.18746 7.92907L6.59163 6.00824L8.1083 4.9249C8.43746 4.6874 8.2708 4.17074 7.86663 4.17074H6.01246V4.16657Z" fill="#FE9427"/>
</g>
<g clip-path="url(#clip1_132_737)">
<path d="M17.0125 4.16657L16.4 2.1499C16.2791 1.75407 15.7208 1.75407 15.6041 2.1499L14.9875 4.16657H13.1333C12.7291 4.16657 12.5625 4.6874 12.8916 4.92074L14.4083 6.00407L13.8125 7.9249C13.6916 8.3124 14.1416 8.6249 14.4625 8.37907L16 7.2124L17.5375 8.38324C17.8583 8.62907 18.3083 8.31657 18.1875 7.92907L17.5916 6.00824L19.1083 4.9249C19.4375 4.6874 19.2708 4.17074 18.8666 4.17074H17.0125V4.16657Z" fill="#FE9427"/>
</g>
<g clip-path="url(#clip2_132_737)">
<path d="M28.0125 4.16657L27.4 2.1499C27.2791 1.75407 26.7208 1.75407 26.6041 2.1499L25.9875 4.16657H24.1333C23.7291 4.16657 23.5625 4.6874 23.8916 4.92074L25.4083 6.00407L24.8125 7.9249C24.6916 8.3124 25.1416 8.6249 25.4625 8.37907L27 7.2124L28.5375 8.38324C28.8583 8.62907 29.3083 8.31657 29.1875 7.92907L28.5916 6.00824L30.1083 4.9249C30.4375 4.6874 30.2708 4.17074 29.8666 4.17074H28.0125V4.16657Z" fill="#FE9427"/>
</g>
<g clip-path="url(#clip3_132_737)">
<path d="M39.0125 4.16657L38.4 2.1499C38.2791 1.75407 37.7208 1.75407 37.6041 2.1499L36.9875 4.16657H35.1333C34.7291 4.16657 34.5625 4.6874 34.8916 4.92074L36.4083 6.00407L35.8125 7.9249C35.6916 8.3124 36.1416 8.6249 36.4625 8.37907L38 7.2124L39.5375 8.38324C39.8583 8.62907 40.3083 8.31657 40.1875 7.92907L39.5916 6.00824L41.1083 4.9249C41.4375 4.6874 41.2708 4.17074 40.8666 4.17074H39.0125V4.16657Z" fill="#FE9427"/>
</g>
<g clip-path="url(#clip4_132_737)">
<path d="M50.0125 4.16657L49.4 2.1499C49.2791 1.75407 48.7208 1.75407 48.6041 2.1499L47.9875 4.16657H46.1333C45.7291 4.16657 45.5625 4.6874 45.8916 4.92074L47.4083 6.00407L46.8125 7.9249C46.6916 8.3124 47.1416 8.6249 47.4625 8.37907L49 7.2124L50.5375 8.38324C50.8583 8.62907 51.3083 8.31657 51.1875 7.92907L50.5916 6.00824L52.1083 4.9249C52.4375 4.6874 52.2708 4.17074 51.8666 4.17074H50.0125V4.16657Z" fill="#FE9427"/>
</g>
<defs>
<clipPath id="clip0_132_737">
<rect width="10" height="10" fill="white"/>
</clipPath>
<clipPath id="clip1_132_737">
<rect width="10" height="10" fill="white" transform="translate(11)"/>
</clipPath>
<clipPath id="clip2_132_737">
<rect width="10" height="10" fill="white" transform="translate(22)"/>
</clipPath>
<clipPath id="clip3_132_737">
<rect width="10" height="10" fill="white" transform="translate(33)"/>
</clipPath>
<clipPath id="clip4_132_737">
<rect width="10" height="10" fill="white" transform="translate(44)"/>
</clipPath>
</defs>
</svg>
