<svg width="20" height="21" viewBox="0 0 20 21" fill="none" xmlns="http://www.w3.org/2000/svg">
<path fill-rule="evenodd" clip-rule="evenodd" d="M0.878029 0.510866L0.776581 0.500256C0.407399 0.48676 0.0758636 0.747839 0.0111097 1.12197L0.000499955 1.22342C-0.0129962 1.5926 0.248083 1.92414 0.622217 1.98889L2.13122 2.24988L3.04575 13.1456L3.06468 13.3094C3.24868 14.5518 4.31732 15.4859 5.59012 15.4859H16.5021L16.6665 15.4806C17.8628 15.4042 18.8547 14.4995 19.0293 13.2977L19.9784 6.73929L19.9948 6.58865C20.0821 5.38957 19.1322 4.34888 17.9091 4.34888H3.81222L3.57749 1.54715L3.5598 1.43629C3.49136 1.14797 3.25698 0.922607 2.95803 0.870866L0.878029 0.510866ZM5.47418 13.9796C4.97892 13.9253 4.58283 13.5276 4.54053 13.0205L3.93822 5.84888H17.9091L17.9973 5.85536C18.313 5.9023 18.5411 6.19757 18.4938 6.52453L17.5449 13.0825L17.521 13.1997C17.4007 13.6583 16.9853 13.9859 16.5021 13.9859H5.59012L5.47418 13.9796ZM3.90852 18.5852C3.90852 17.7491 4.5862 17.0702 5.42252 17.0702C6.25874 17.0702 6.93752 17.749 6.93752 18.5852C6.93752 19.4215 6.25862 20.0992 5.42252 20.0992C4.58631 20.0992 3.90852 19.4214 3.90852 18.5852ZM15.1599 18.5852C15.1599 17.749 15.8387 17.0702 16.6749 17.0702C17.5111 17.0702 18.1899 17.749 18.1899 18.5852C18.1899 19.4215 17.511 20.0992 16.6749 20.0992C15.8388 20.0992 15.1599 19.4215 15.1599 18.5852ZM15.6486 8.79488C15.6486 8.38066 15.3128 8.04488 14.8986 8.04488H12.1256L12.0239 8.05172C11.6578 8.10139 11.3756 8.41518 11.3756 8.79488C11.3756 9.20909 11.7114 9.54488 12.1256 9.54488H14.8986L15.0004 9.53803C15.3665 9.48837 15.6486 9.17457 15.6486 8.79488Z" fill="#001869"/>
</svg>
