<svg width="19" height="19" viewBox="0 0 19 19" fill="none" xmlns="http://www.w3.org/2000/svg">
<path fill-rule="evenodd" clip-rule="evenodd" d="M12.1615 14.1247C11.8996 13.8626 11.7552 13.514 11.7552 13.1434C11.7552 12.8914 11.8221 12.6496 11.947 12.4382L10.8138 11.3049C9.77148 12.2322 8.39951 12.7966 6.89798 12.7966C3.64588 12.7966 1 10.1505 1 6.89828C1 3.64601 3.64588 1 6.89798 1C10.1501 1 12.796 3.64601 12.796 6.89828C12.796 8.39988 12.2316 9.77171 11.3043 10.8142L12.4379 11.9475C12.6492 11.8224 12.8908 11.7555 13.1428 11.7555C13.5136 11.7555 13.8621 11.8999 14.1241 12.1621L17.5934 15.6316C17.8556 15.8938 18 16.2421 18 16.6129C18 16.9835 17.8556 17.3321 17.5934 17.5943C17.323 17.8649 16.9677 18 16.6121 18C16.2569 18 15.9015 17.8649 15.6309 17.5943L12.1615 14.1247ZM6.89796 1.69393C4.02852 1.69393 1.69391 4.02861 1.69391 6.89825C1.69391 9.76783 4.02852 12.1026 6.89796 12.1026C9.76745 12.1026 12.102 9.76783 12.102 6.89825C12.102 4.02861 9.76745 1.69393 6.89796 1.69393ZM12.6522 13.6341L16.1215 17.1036C16.3922 17.3743 16.8324 17.374 17.103 17.1036C17.2339 16.9725 17.3061 16.7983 17.3061 16.613C17.3061 16.4277 17.2339 16.2534 17.103 16.1223L13.6336 12.6527C13.5025 12.5217 13.3283 12.4495 13.143 12.4495C12.9575 12.4495 12.7832 12.5217 12.6522 12.6527C12.5211 12.7838 12.4491 12.9581 12.4491 13.1434C12.4491 13.3287 12.5211 13.503 12.6522 13.6341Z" fill="#001869"/>
<path d="M12.1615 14.1247L11.808 14.4783L11.8078 14.4781L12.1615 14.1247ZM11.947 12.4382L12.3006 12.0847L12.5748 12.3589L12.3775 12.6927L11.947 12.4382ZM10.8138 11.3049L10.4814 10.9313L10.8338 10.6178L11.1673 10.9513L10.8138 11.3049ZM11.3043 10.8142L10.9508 11.1678L10.6173 10.8343L10.9308 10.4819L11.3043 10.8142ZM12.4379 11.9475L12.6927 12.3778L12.3588 12.5755L12.0844 12.3011L12.4379 11.9475ZM14.1241 12.1621L13.7705 12.5156L13.7704 12.5155L14.1241 12.1621ZM17.5934 15.6316L17.2399 15.9851H17.2399L17.5934 15.6316ZM17.5934 17.5943L17.2397 17.2409L17.2399 17.2407L17.5934 17.5943ZM15.6309 17.5943L15.9845 17.2407L15.6309 17.5943ZM12.6522 13.6341L12.2986 13.9876L12.6522 13.6341ZM16.1215 17.1036L15.768 17.4572L16.1215 17.1036ZM17.103 17.1036L17.4568 17.4569L17.4564 17.4573L17.103 17.1036ZM17.103 16.1223L17.4566 15.7687L17.4568 15.769L17.103 16.1223ZM13.6336 12.6527L13.9872 12.2992L13.6336 12.6527ZM11.8078 14.4781C11.4523 14.1223 11.2552 13.6466 11.2552 13.1434H12.2552C12.2552 13.3813 12.3469 13.6029 12.5153 13.7713L11.8078 14.4781ZM11.2552 13.1434C11.2552 12.8021 11.346 12.4723 11.5166 12.1838L12.3775 12.6927C12.2981 12.8268 12.2552 12.9808 12.2552 13.1434H11.2552ZM11.5935 12.7918L10.4602 11.6584L11.1673 10.9513L12.3006 12.0847L11.5935 12.7918ZM11.1461 11.6784C10.0162 12.6837 8.5272 13.2966 6.89798 13.2966V12.2966C8.27181 12.2966 9.52675 11.7806 10.4814 10.9313L11.1461 11.6784ZM6.89798 13.2966C3.36971 13.2966 0.5 10.4267 0.5 6.89828H1.5C1.5 9.87442 3.92205 12.2966 6.89798 12.2966V13.2966ZM0.5 6.89828C0.5 3.3699 3.36971 0.5 6.89798 0.5V1.5C3.92205 1.5 1.5 3.92213 1.5 6.89828H0.5ZM6.89798 0.5C10.4262 0.5 13.296 3.3699 13.296 6.89828H12.296C12.296 3.92213 9.87391 1.5 6.89798 1.5V0.5ZM13.296 6.89828C13.296 8.52758 12.6831 10.0164 11.6779 11.1465L10.9308 10.4819C11.7801 9.527 12.296 8.27219 12.296 6.89828H13.296ZM11.6579 10.4606L12.7914 11.594L12.0844 12.3011L10.9508 11.1678L11.6579 10.4606ZM12.1831 11.5173C12.4717 11.3465 12.8013 11.2555 13.1428 11.2555V12.2555C12.9803 12.2555 12.8267 12.2984 12.6927 12.3778L12.1831 11.5173ZM13.1428 11.2555C13.6462 11.2555 14.122 11.4526 14.4778 11.8087L13.7704 12.5155C13.6023 12.3472 13.381 12.2555 13.1428 12.2555V11.2555ZM14.4776 11.8085L17.947 15.2781L17.2399 15.9851L13.7705 12.5156L14.4776 11.8085ZM17.947 15.2781C18.3028 15.6339 18.5 16.1094 18.5 16.6129H17.5C17.5 16.3748 17.4083 16.1536 17.2399 15.9851L17.947 15.2781ZM18.5 16.6129C18.5 17.1162 18.3029 17.5919 17.947 17.9478L17.2399 17.2407C17.4083 17.0723 17.5 16.8509 17.5 16.6129H18.5ZM17.9471 17.9477C17.5787 18.3164 17.0942 18.5 16.6121 18.5V17.5C16.8412 17.5 17.0674 17.4134 17.2397 17.2409L17.9471 17.9477ZM16.6121 18.5C16.1302 18.5 15.6459 18.3164 15.2773 17.9478L15.9845 17.2407C16.1572 17.4134 16.3835 17.5 16.6121 17.5V18.5ZM15.2773 17.9478L11.808 14.4783L12.5151 13.7712L15.9845 17.2407L15.2773 17.9478ZM6.89796 2.19393C4.30468 2.19393 2.19391 4.30473 2.19391 6.89825H1.19391C1.19391 3.75249 3.75236 1.19393 6.89796 1.19393V2.19393ZM2.19391 6.89825C2.19391 9.49171 4.30469 11.6026 6.89796 11.6026V12.6026C3.75235 12.6026 1.19391 10.044 1.19391 6.89825H2.19391ZM6.89796 11.6026C9.49128 11.6026 11.602 9.49172 11.602 6.89825H12.602C12.602 10.0439 10.0436 12.6026 6.89796 12.6026V11.6026ZM11.602 6.89825C11.602 4.30473 9.49128 2.19393 6.89796 2.19393V1.19393C10.0436 1.19393 12.602 3.75249 12.602 6.89825H11.602ZM13.0057 13.2805L16.4751 16.7501L15.768 17.4572L12.2986 13.9876L13.0057 13.2805ZM16.4751 16.7501C16.5503 16.8253 16.674 16.8254 16.7496 16.7499L17.4564 17.4573C16.9908 17.9226 16.234 17.9233 15.768 17.4572L16.4751 16.7501ZM16.7491 16.7504C16.7865 16.7129 16.8061 16.6656 16.8061 16.613H17.8061C17.8061 16.9309 17.6812 17.2322 17.4568 17.4569L16.7491 16.7504ZM16.8061 16.613C16.8061 16.5603 16.7865 16.513 16.7491 16.4755L17.4568 15.769C17.6812 15.9938 17.8061 16.295 17.8061 16.613H16.8061ZM16.7494 16.4758L13.2801 13.0063L13.9872 12.2992L17.4566 15.7687L16.7494 16.4758ZM13.2801 13.0063C13.2427 12.9689 13.1956 12.9495 13.143 12.9495V11.9495C13.4609 11.9495 13.7624 12.0744 13.9872 12.2992L13.2801 13.0063ZM13.143 12.9495C13.0901 12.9495 13.043 12.969 13.0057 13.0063L12.2986 12.2992C12.5234 12.0744 12.8248 11.9495 13.143 11.9495V12.9495ZM13.0057 13.0063C12.9686 13.0434 12.9491 13.0904 12.9491 13.1434H11.9491C11.9491 12.8259 12.0735 12.5243 12.2986 12.2992L13.0057 13.0063ZM12.9491 13.1434C12.9491 13.1964 12.9686 13.2435 13.0057 13.2805L12.2986 13.9876C12.0735 13.7625 11.9491 13.461 11.9491 13.1434H12.9491Z" fill="#001869"/>
</svg>
